<svg id="Layer_1" data-name="Layer 1" xmlns="http://www.w3.org/2000/svg" viewBox="0 0 405 405"><defs><style>.cls-1{fill:none;stroke:#fff;stroke-miterlimit:10;stroke-width:12px;}.cls-2{fill:#fff;}</style></defs><circle class="cls-1" cx="202.5" cy="202.5" r="196.5"/><path class="cls-2" d="M165.33,237.21v132.3h2.89V312.79c0-47.92.05-56.75.29-57s1.6-.22,4.59-.18l4.32.06.07,11.31,0,11.33h22.61c20.43,0,22.62,0,22.74.33s.13,7.85.13,17.05v16.73h2.07V264.91h-5.3a37.92,37.92,0,0,1-5.68-.21c-.39-.21-.39-.6-.39-15.77,0-11.83.06-15.63.24-15.82s2.73-.24,10.22-.24c8.89,0,10,0,10.08.33s.13,4.71.13,10.08c0,7.32-.06,9.82-.25,10s-8.06.35-8.66,0c-.37-.21-.39-.49-.39-5.68v-5.48H223v13.44h5.56c4.88,0,5.58,0,5.68.33s.13,13,.13,28.42v28.1h2.07V230.8H200.27v2.07h5.56c4.88,0,5.58,0,5.68.33s.13,4.71.13,10.08c0,7.32-.06,9.82-.25,10s-1.74.25-5.69.25h-5.43v2.07h5.56c4.88,0,5.58,0,5.68.33s.13,2.73.13,5.68V267h5.56c4.88,0,5.58,0,5.68.33.25.64.15,8.45-.12,8.72s-5.23.25-21.38.25c-18.93,0-21.17,0-21.45-.33s-.34-1.59-.34-11.37v-11h-5.35c-4.61,0-5.42,0-5.68-.33s-.34-3-.34-27.15c0-20.57.07-26.87.25-27.06.35-.35,110.79-.35,111.14,0,.19.19.25,2.71.25,10.09s-.06,9.9-.25,10.09c-.35.35-8.45.35-8.81,0-.18-.19-.24-1.74-.24-5.69v-5.43h-2.07v70.29H293.3V253.54H279.86V267h2.07v-5.36c0-2.95.06-5.5.12-5.68s.7-.33,4.4-.33c3.06,0,4.35.06,4.53.24s.25,2.71.25,10.13c0,9.55,0,9.89-.39,10.09-.62.31-19.7.29-20,0s-.35-53.94,0-54.29c.19-.18,1.74-.25,5.69-.25h5.44v-24.8H253.75c-21.65,0-28.24-.06-28.43-.25-.35-.35-.35-19.83,0-20.18s31.2-.35,31.55,0,.35,8.46,0,8.81c-.19.18-3,.25-11.37.25H234.38v2.06h28.18c21.64,0,28.24.07,28.42.25s.25,4.26.25,17.06v16.8H316V185.32H314V202c0,11.08-.06,16.79-.21,17.05s-.53.4-10.09.4c-7.42,0-9.94-.06-10.13-.25s-.24-4.26-.24-17.06v-16.8H276.49c-12.8,0-16.87-.07-17.06-.25s-.24-1.74-.24-5.69V174h-5.44c-3.95,0-5.5-.07-5.69-.25s-.24-1.74-.24-5.69v-5.43h-2.07V168c0,4-.06,5.5-.25,5.69-.35.35-19.82.35-20.18,0-.18-.19-.24-1.74-.24-5.69v-5.43H223V168c0,4-.06,5.5-.25,5.69s-1.74.25-5.68.25h-5.44v13.43h2.07V182c0-3.95.06-5.5.24-5.69.35-.35,8.46-.35,8.81,0s.35,19.83,0,20.18-19.83.35-20.18,0c-.18-.19-.24-1.74-.24-5.69v-5.43h-2.07v5.43c0,3.95-.06,5.5-.25,5.69-.35.35-31.2.35-31.55,0-.18-.19-.25-10.3-.25-44.24,0-43.27,0-44,.4-44.2s5.58-.21,15.79-.21c12.82,0,15.42,0,15.63.29s.23,1.59.19,4.59l-.07,4.32-11.3.06-11.33,0V176h2.06V147.8c0-27.69,0-28.2.4-28.43s4.21-.21,11.37-.21h11v-5.43c0-4,.06-5.5.24-5.69.35-.35,53.94-.35,54.29,0,.19.19.25,3,.25,11.37v11.12h24.81v-2.06H270.8c-8.37,0-11.18-.07-11.37-.25-.35-.35-.35-19.83,0-20.18s8.46-.35,8.81,0c.19.19.25,1.74.25,5.69v5.43h2.07v-5.43c0-4,.06-5.5.24-5.69s8.07-.35,8.67,0c.37.21.39.5.39,5.68v5.48h2.07v-5.43c0-4,.06-5.5.24-5.69s8.07-.35,8.67,0c.39.21.39.6.39,15.77,0,11.83-.06,15.63-.25,15.82s-5.23.25-21.46.25-21.27-.07-21.46-.25-.24-3-.24-11.37V117.1H211.64v2.06h16.81c12.79,0,16.86.07,17.05.25.35.35.35,19.83,0,20.18s-53.94.35-54.29,0-.35-8.46,0-8.81c.19-.18,5.52-.25,22.74-.25h22.5v-2.06H188.9v28.17c0,21.65-.06,28.24-.25,28.43s-1.74.25-5.69.25h-5.43v2.06H191V182c0-3.95.07-5.5.25-5.69S193,176,196.9,176h5.44V162.58h-2.07V168c0,4-.06,5.5-.25,5.69-.35.35-8.46.35-8.81,0s-.35-19.83,0-20.18,19.83-.35,20.18,0c.19.19.25,1.74.25,5.69v5.43h2.07v-5.43c0-4,.06-5.5.24-5.69.35-.35,19.83-.35,20.18,0,.19.19.25,1.74.25,5.69v5.43h2.07v-5.43c0-4,.06-5.5.24-5.69s2.71-.25,10.09-.25,9.9.07,10.09.25.25,1.74.25,5.69v5.43h5.44c3.94,0,5.49.07,5.68.25s.25,1.74.25,5.69V176H285.3c12.79,0,16.87.07,17.05.25s.25,4.26.25,17.06v16.8h2.07v-16.8c0-12.8.06-16.87.24-17.06s3-.25,11.38-.25h11.12V174h-5.36c-2.95,0-5.5-.07-5.68-.13s-.33-.7-.33-4.4c0-3.06.06-4.34.25-4.53.35-.35,19.82-.35,20.17,0,.19.19.25,3,.25,11.37v11.12h11l.2.54c.15.35.19,6.06.17,15.84-.06,13.31-.1,15.3-.37,15.46a40.59,40.59,0,0,1-5.63.21h-5.33v2.06h13.44V151.21H302.6v5.43c0,4-.06,5.5-.25,5.69s-3,.25-11.37.25H279.86v2.06h24.81v-5.43c0-4,.06-5.5.24-5.69s5.26-.25,21.5-.25h21.26l.2.54c.27.7.27,30.27,0,31l-.2.54h-4.12c-2.27,0-4.26-.07-4.44-.13s-.33-1.3-.33-11.37V162.58H314V168c0,4-.06,5.5-.25,5.69-.35.35-42.56.35-42.92,0-.18-.19-.24-1.74-.24-5.69v-5.43h-5.44c-3.95,0-5.5-.07-5.69-.25s-.24-1.74-.24-5.69v-5.43H225.32c-26.07,0-33.92-.07-34.11-.25-.35-.35-.35-8.46,0-8.81s76.68-.35,77,0c.19.19.25,1.74.25,5.69v5.43h2.07v-5.43c0-4,.06-5.5.24-5.69s2.71-.25,10.09-.25,9.91.07,10.09.25c.35.35.35,8.46,0,8.81-.18.18-1.74.25-5.68.25h-5.44v2.06H293.3V104.9h-128Z" transform="translate(-95.14 -34.71)"/><path class="cls-2" d="M302.6,106.35v1.44h11c9.78,0,11.08,0,11.37.33s.33,1.6.33,11.37v11h2.07V119.41c0-8.37.06-11.18.25-11.37s19.51-.35,20,0c.27.17.31,1.53.37,9.92,0,6.64,0,9.86-.17,10.13s-.39.42-4.61.37l-4.38-.06-.06-5.64,0-5.62h-2.07v13.43h13.44V119.41c0-8.37.06-11.18.25-11.37s9-.25,38.39-.25c21,0,38.28.09,38.43.17s.24,4.61.2,21.66l-.06,21.48-16.95.11-17,.1V255.5l6.78.06,6.76.05v-2.07h-5.42a53.18,53.18,0,0,1-5.7-.17c-.21-.14-.25-2.33-.21-10.29l.06-10.11,11.33-.06,11.31,0V230.8H413c-2.95,0-5.49-.06-5.68-.13s-.33-2.21-.33-21.58,0-21.46.33-21.58,2.73-.13,5.68-.13h5.36v-2.06H413c-2.95,0-5.49-.07-5.68-.13S407,184,407,175s0-10.11.33-10.21,2.73-.13,5.68-.13h5.36v-2.06l-6.76,0-6.78.06-.06,33.88c0,26.82-.11,33.95-.31,34.07a63.29,63.29,0,0,1-8.5,0c-.31-.12-.33-3.72-.33-38.63s0-38.52.33-38.64c.5-.19,31-.15,31.26,0s.24,2.34.2,10.29l-.06,10.11-5.58.11-5.58.1v1.86l5.58.1,5.58.11v20.46l-5.58.11-5.58.1v24.6l1.07.06,1.1.07,0-11.33.06-11.33h8.89l.06,21.54c0,11.87,0,21.58,0,21.6s-5.12.11-11.33.17l-11.26.1v1.86l5.58.11,5.58.1.06,10.11c0,8,0,10.15-.2,10.29s-30.76.23-31.26,0c-.31-.12-.33-5.31-.33-56.87V151.19l-1.08.06-1.09.06L382,168.26l-.1,17-4,.07c-2.21,0-4.24,0-4.49-.07l-.47-.1V163.63c0-19.39,0-21.48.33-21.6s10.42-.13,22.74-.13h22.41V117.1l-12.45,0-12.46.06v1.86l5.58.1c3.08.07,5.6.15,5.64.17s0,2.07,0,4.53l-.06,4.5H384.36l-.06-5.64,0-5.62H359.45v11c0,8.5-.06,11.11-.25,11.37s-1.73.36-21.66.31l-21.4-.06-.06-11.33,0-11.3H302.6v2.06H308c4.61,0,5.42,0,5.69.33s.33,1.49.33,10.09c0,8.06,0,9.84-.29,10s-1.59.23-4.59.18l-4.32-.06-.06-5.64,0-5.62H302.6V141.9H359l.2.54c.13.33.21,14.78.21,39.8v39.25h13.44v-24.8h-2.05l-.06,11.16c-.06,9.68-.1,11.21-.37,11.37a55.34,55.34,0,0,1-8.56.08c-.31-.12-.33-4.71-.33-50s0-49.89.33-50c.47-.19,19.58-.15,19.87,0s.26,1.57.31,5.62l.06,5.48,12.46.06,12.45,0V125c0-4.88,0-5.58.33-5.68a63.61,63.61,0,0,1,8.52,0c.2.14.24,2.33.2,10.29L416,139.73H373l-.06-5.64,0-5.62h-2.07v58.91l5.54.05,5.52.06.06,27.16c0,21.61,0,27.21-.2,27.35a63.61,63.61,0,0,1-8.52,0c-.29-.1-.33-.8-.33-5.68V230.8H350.42c-12.39,0-22.62-.08-22.76-.17s-.25-2.33-.21-10.29l.06-10.11,5.64-.06,5.63,0V196.69h-5.36c-2.95,0-5.5-.06-5.68-.13s-.33-.8-.33-5.68v-5.56h-2.07v13.43h5.44c4,0,5.5.07,5.68.25s.35,8.07,0,8.66c-.2.38-.49.4-5.68.4h-5.48v11c0,7.16-.08,11.11-.21,11.37s-.68.4-22.74.4H279.86v13.44H291c8.37,0,11.19.06,11.37.24s.25,5.25.25,21.5v21.26l-.54.2c-.72.29-41.61.29-42.34,0l-.53-.2V208.06H223v2.06h16.81c12.79,0,16.86.07,17.05.25s.25,11.56.25,49.93V310l-.54.2a41.91,41.91,0,0,1-8.23,0l-.53-.2V219.43H188.9v11.12c0,8.37-.06,11.18-.25,11.37-.35.35-8.46.35-8.81,0s-.35-31.2,0-31.55c.19-.18,4.26-.25,17.06-.25h16.81v-2.06H177.53v36.18l5.64,0,5.62.06.07,11.31,0,11.33h13.44v-2.07H197a37.92,37.92,0,0,1-5.68-.21c-.37-.21-.4-.54-.4-10.09,0-7.42.07-9.94.25-10.13s1.74-.24,5.69-.24h5.44v-2.07H196.9c-4,0-5.5-.06-5.69-.25-.35-.35-.35-19.83,0-20.18s54-.35,54.31,0c.17.21.21,13.4.19,50l-.06,49.7H213.81l-.06-16.91,0-16.89H177.53v58.92h2.06V318.39c0-21.65.07-28.24.25-28.43s4-.24,15.9-.24c14.08,0,15.65,0,15.77.33s.13,4.73.13,10.13V310l-.54.2a42.58,42.58,0,0,1-5.68.21h-5.15V335.2h13.46l-.07-1.1L213.6,333l-5.58-.11-5.58-.1-.06-9.72c0-5.35,0-9.92.06-10.19l.1-.45,4.51,0,4.48.06.07,5.62,0,5.65,5.64,0,5.62.06v20.26H191.07L191,323.1c0-11.59,0-21.29.06-21.56l.1-.45h11.17V299H188.9v47.55h28.3c25.61,0,28.3,0,28.42.33s.13,2.73.13,5.68v5.36h2.07v-5.36c0-2.95.06-5.5.12-5.68s1.2-.33,10.23-.33h10.11l.11.47c.06.25.08,2.28.06,4.49l-.06,4-5.59.1-5.58.11-.06,1.09-.06,1.08h13.46l-.05-6.78-.06-6.76-22.63-.11-22.64-.1-.06-9.72c0-5.35,0-9.92.06-10.19l.1-.45H282l-.06-1.1-.07-1.07-16.95-.11-17-.1-.06-4c0-2.21,0-4.24.06-4.49l.1-.47h33.91V299H268.49v2.07h5.56c4.88,0,5.58,0,5.69.33s.12,2.17.12,4.44V310l-.54.2c-.7.27-18.89.27-19.6,0l-.53-.2,0-10.07.06-10.09,15.79-.06c12.51,0,15.84,0,16,.2.21.36.21,42.36,0,42.69s-6.12.27-28.38.31l-28.2.07-.06,1.09-.06,1.08H257c20.45,0,22.64,0,22.77.33s.12,5.29.12,11.37v11h2.07l0-11.33L282,335.3l11.33-.06,11.31,0,0-6.78-.07-6.76H302.7l-.1,5.58c-.06,3.06-.15,5.6-.17,5.64s-2.06,0-4.52,0l-4.51-.06v-43l4.42-.06c3.42,0,4.47,0,4.61.2s.17,5.28.17,11.37v11.13h2.07l0-22.68.06-22.7,15.69-.06c11.41,0,15.77,0,16,.18s.29,1.35.29,5.69v5.46h13.44v-2.07h-5.44c-3.95,0-5.5-.06-5.68-.25s-.25-1.74-.25-5.68v-5.44H322c-13.95,0-16.85,0-17.06-.29s-.2-3.06-.18-10.28l.06-10,15.69-.06c11.41,0,15.77,0,16,.18s.29,1.14.29,4.34c0,3.44,0,4.14-.33,4.41s-1.59.33-11.37.33H314v2.07h16.85c16.43,0,16.85,0,17.05.39a37.92,37.92,0,0,1,.21,5.68V267h5.48c5.25,0,5.48,0,5.68.41s.21,19.72-.06,20-30.86.33-31.36.06-.41-.45-.41-5.68v-5.48h-2.07v24.81h2.07l0-5.65.06-5.62,17-.06,17,0,0-5.65.06-5.62h20.26L382,284l.11,5.58,1.07.06,1.1.07,0-5.65.06-5.64h8.89l.06,10.15,0,10.17-.45.12c-.85.23-19.19.15-19.62-.08s-.39-.49-.39-5.68v-5.48h-2.05l-.06,5.46c0,3-.15,5.54-.23,5.64s-7.75.19-17,.23l-16.83,0v5.33a38.87,38.87,0,0,1-.21,5.63c-.16.26-1.53.31-9.92.37-6.57,0-9.86,0-10.13-.17s-.41-.47-.41-17.05V276.28H314V310c0,18.56-.08,33.88-.17,34s-2.7.27-11.32.31l-11.15.07-.06,6.78,0,6.76,46.45,0,46.47-.07V321.66H370.92l-.06,1.07-.06,1.1,5.54,0,5.54.06.06,10.19,0,10.17-27.22,0-27.25-.06V335.3l11.33-.06,11.33,0-.06-1.1L350,333l-11.26-.11-11.27-.1v-8.89l11.33-.06,11.33,0-.06-1.1-.07-1.07h-24.6l-.06,12.44,0,12.47H382v9.09l-44.28,0-44.3-.06v-8.89l11.31-.06,11.33,0,0-17,.06-17,11.31-.06,11.33,0,0-5.65.06-5.62,28.32-.1,28.33-.11.06-12.36,0-12.34H378.9c-9.2,0-16.87-.06-17-.13s-.33-.8-.33-5.68v-5.56h-5.44c-3.95,0-5.5-.06-5.68-.25s-.25-1.74-.25-5.68v-5.44h-5.44c-3.95,0-5.5-.06-5.68-.25s-.25-1.74-.25-5.69v-5.43H310.6c-21.64,0-28.24-.06-28.43-.25a49.27,49.27,0,0,1-.12-8.72c.12-.31,4.2-.33,44.24-.33,43.39,0,44.1,0,44.32.39a37.92,37.92,0,0,1,.21,5.68v5.3l5.54,0,5.52.06.06,10.11c0,8,0,10.15-.2,10.29a63.61,63.61,0,0,1-8.52,0c-.29-.1-.33-.8-.33-5.68v-5.56h-5.36c-2.95,0-5.5-.06-5.68-.13s-.33-.8-.33-5.68v-5.56H348.08v2.07h5.48c5.19,0,5.48,0,5.68.39a37.92,37.92,0,0,1,.21,5.68v5.3h5.48c5.19,0,5.48,0,5.68.39a37.92,37.92,0,0,1,.21,5.68V267l16.91,0,16.89.06.06,21.52,0,21.54-.45.13c-.27.06-13,.12-28.32.12H348.08v2.07h5.48c5.19,0,5.48,0,5.68.39s.21,4.22.21,11.37v11l6.68,0,6.65-.07V333l-5.58-.11-5.58-.1V312.56h31.63l.1,22.64.11,22.63h24.81v-2.06l-5.59-.11-5.58-.1V335.3l5.58-.1,5.59-.11V333l-6.5-.07c-4.61,0-6.57,0-6.76.19s-.29,2.19-.29,11.37v11.14l-4.48,0-4.51-.06V323.93l11.27-.1,11.27-.11.06-23.73,0-23.71h-2.28v45.27H395.63l0-4.5.06-4.49,5.58-.1,5.59-.11.1-22.63.1-22.64,5.63-.06,5.64,0,0-11.33.06-11.31h8.89l.06,50,0,50h-5.41a48.13,48.13,0,0,0-5.71.19c-.18.1-.25.5-.2,1.07l.06.91,5.58.11,5.58.1.06,10.19,0,10.17L332,367l-95.47-.06-.1-5.58-.11-5.58H223.11l-.06,1.07-.06,1.1,5.64,0,5.65.06v8.89l-27.17.06c-21.6,0-27.21,0-27.35-.2a63.61,63.61,0,0,1,0-8.52c.12-.29,1.82-.33,17.07-.33h16.94l-.07-1.1-.06-1.07h-36l-.06,6.86,0,6.88H430V104.9H302.6Z" transform="translate(-95.14 -34.71)"/></svg>