<svg id="Layer_1" data-name="Layer 1" xmlns="http://www.w3.org/2000/svg" xmlns:xlink="http://www.w3.org/1999/xlink" viewBox="0 0 405 405"><defs><style>.cls-1,.cls-7{fill:none;}.cls-1{stroke:#fff;stroke-miterlimit:10;stroke-width:12px;}.cls-2,.cls-5{fill:#010101;}.cls-18,.cls-2,.cls-28,.cls-3,.cls-4,.cls-5{fill-opacity:1;}.cls-18,.cls-2,.cls-6{stroke:#1a1a1a;}.cls-2{stroke-width:14px;}.cls-3{fill:#ca1517;}.cls-18,.cls-4{fill:#262626;}.cls-17,.cls-18,.cls-4{opacity:0.9;}.cls-17,.cls-18,.cls-4,.cls-5,.cls-7{isolation:isolate;}.cls-5,.cls-7{opacity:0.5;}.cls-6{fill:#202121;}.cls-18,.cls-6{stroke-width:5px;}.cls-7{stroke:#2a292a;stroke-linecap:round;stroke-linejoin:round;stroke-width:6px;}.cls-8{fill:url(#linear-gradient);}.cls-9{fill:url(#linear-gradient-2);}.cls-10{fill:url(#linear-gradient-3);}.cls-11{fill:url(#linear-gradient-4);}.cls-12{fill:url(#linear-gradient-5);}.cls-13{fill:url(#linear-gradient-6);}.cls-14{fill:url(#linear-gradient-7);}.cls-15{fill:url(#linear-gradient-8);}.cls-16{fill:url(#linear-gradient-9);}.cls-17{fill:#1a1a1a;}.cls-19{fill:url(#linear-gradient-10);}.cls-20{fill:url(#linear-gradient-11);}.cls-21{fill:url(#linear-gradient-12);}.cls-22{fill:url(#linear-gradient-13);}.cls-23{fill:url(#linear-gradient-14);}.cls-24{fill:url(#linear-gradient-15);}.cls-25{fill:url(#linear-gradient-16);}.cls-26{fill:url(#linear-gradient-17);}.cls-27{fill:url(#linear-gradient-18);}.cls-28{fill:#f9b233;}.cls-29{fill:url(#linear-gradient-19);}.cls-30{fill:url(#linear-gradient-20);}.cls-31{fill:url(#linear-gradient-21);}.cls-32{fill:url(#linear-gradient-22);}.cls-33{fill:url(#linear-gradient-23);}.cls-34{fill:url(#linear-gradient-24);}.cls-35{fill:url(#linear-gradient-25);}.cls-36{fill:url(#linear-gradient-26);}.cls-37{fill:url(#linear-gradient-27);}.cls-38{fill:url(#linear-gradient-28);}.cls-39{fill:url(#linear-gradient-29);}.cls-40{fill:url(#linear-gradient-30);}.cls-41{fill:url(#linear-gradient-31);}.cls-42{fill:url(#linear-gradient-32);}.cls-43{fill:url(#linear-gradient-33);}.cls-44{fill:url(#linear-gradient-34);}.cls-45{fill:url(#linear-gradient-35);}.cls-46{fill:url(#linear-gradient-36);}.cls-47{fill:#fff;}</style><linearGradient id="linear-gradient" x1="422.6" y1="3.83" x2="418.49" y2="5.18" gradientTransform="matrix(0, -1, -1, 0, 230.26, 763.13)" gradientUnits="userSpaceOnUse"><stop offset="0" stop-color="#1b1b1b"/><stop offset="1" stop-color="#e41d19" stop-opacity="0"/></linearGradient><linearGradient id="linear-gradient-2" x1="415.21" y1="306.59" x2="413.12" y2="306.58" gradientTransform="matrix(0, -1, -1, 0, 530.82, 750)" xlink:href="#linear-gradient"/><linearGradient id="linear-gradient-3" x1="408.64" y1="304.78" x2="397.26" y2="305.78" gradientTransform="matrix(0, -1, -1, 0, 529.41, 743.81)" xlink:href="#linear-gradient"/><linearGradient id="linear-gradient-4" x1="414.94" y1="301.96" x2="412.55" y2="303.21" gradientTransform="matrix(0, -1, -1, 0, 530.82, 750)" xlink:href="#linear-gradient"/><linearGradient id="linear-gradient-5" x1="411.03" y1="301.38" x2="403.08" y2="310.44" gradientTransform="matrix(0, -1, -1, 0, 530.82, 750)" xlink:href="#linear-gradient"/><linearGradient id="linear-gradient-6" x1="378.91" y1="312.66" x2="364.23" y2="312.44" gradientTransform="matrix(0, -0.89, -0.89, 0, 504.67, 677.17)" xlink:href="#linear-gradient"/><linearGradient id="linear-gradient-7" x1="390.14" y1="315.38" x2="378.1" y2="316.09" gradientTransform="matrix(0, -0.89, -0.89, 0, 508.24, 690.98)" xlink:href="#linear-gradient"/><linearGradient id="linear-gradient-8" x1="292.6" y1="1.91" x2="288.32" y2="2.88" gradientTransform="matrix(0.14, -0.99, -0.99, -0.14, 190.84, 741.57)" xlink:href="#linear-gradient"/><linearGradient id="linear-gradient-9" x1="285.77" y1="2.24" x2="281.81" y2="2.32" gradientTransform="matrix(0.14, -0.99, -0.99, -0.14, 192.12, 731.3)" xlink:href="#linear-gradient"/><linearGradient id="linear-gradient-10" x1="422.6" y1="181.89" x2="418.49" y2="183.25" gradientTransform="translate(0.95 763.13) rotate(-90)" xlink:href="#linear-gradient"/><linearGradient id="linear-gradient-11" x1="415.21" y1="484.65" x2="413.12" y2="484.64" gradientTransform="translate(-299.6 750) rotate(-90)" xlink:href="#linear-gradient"/><linearGradient id="linear-gradient-12" x1="408.64" y1="482.84" x2="397.26" y2="483.84" gradientTransform="translate(-298.19 743.81) rotate(-90)" xlink:href="#linear-gradient"/><linearGradient id="linear-gradient-13" x1="414.94" y1="480.02" x2="412.55" y2="481.27" gradientTransform="translate(-299.6 750) rotate(-90)" xlink:href="#linear-gradient"/><linearGradient id="linear-gradient-14" x1="411.03" y1="479.44" x2="403.08" y2="488.5" gradientTransform="translate(-299.6 750) rotate(-90)" xlink:href="#linear-gradient"/><linearGradient id="linear-gradient-15" x1="378.91" y1="511.99" x2="364.23" y2="511.76" gradientTransform="translate(-273.45 677.17) rotate(-90) scale(0.89)" xlink:href="#linear-gradient"/><linearGradient id="linear-gradient-16" x1="390.14" y1="514.7" x2="378.1" y2="515.41" gradientTransform="translate(-277.02 690.98) rotate(-90) scale(0.89)" xlink:href="#linear-gradient"/><linearGradient id="linear-gradient-17" x1="268.03" y1="178.27" x2="263.75" y2="179.24" gradientTransform="translate(40.38 741.57) rotate(-97.93)" xlink:href="#linear-gradient"/><linearGradient id="linear-gradient-18" x1="261.2" y1="178.6" x2="257.24" y2="178.67" gradientTransform="translate(39.1 731.3) rotate(-97.93)" xlink:href="#linear-gradient"/><linearGradient id="linear-gradient-19" x1="485.99" y1="-171.73" x2="481.88" y2="-170.37" xlink:href="#linear-gradient"/><linearGradient id="linear-gradient-20" x1="478.6" y1="131.04" x2="476.51" y2="131.02" gradientTransform="matrix(0, -1, -1, 0, 530.82, 750)" xlink:href="#linear-gradient"/><linearGradient id="linear-gradient-21" x1="472.03" y1="129.23" x2="460.65" y2="130.22" gradientTransform="matrix(0, -1, -1, 0, 529.41, 743.81)" xlink:href="#linear-gradient"/><linearGradient id="linear-gradient-22" x1="478.33" y1="126.4" x2="475.94" y2="127.65" gradientTransform="matrix(0, -1, -1, 0, 530.82, 750)" xlink:href="#linear-gradient"/><linearGradient id="linear-gradient-23" x1="474.42" y1="125.82" x2="466.47" y2="134.88" gradientTransform="matrix(0, -1, -1, 0, 530.82, 750)" xlink:href="#linear-gradient"/><linearGradient id="linear-gradient-24" x1="449.87" y1="116.14" x2="435.19" y2="115.92" gradientTransform="matrix(0, -0.89, -0.89, 0, 504.67, 677.17)" xlink:href="#linear-gradient"/><linearGradient id="linear-gradient-25" x1="461.1" y1="118.86" x2="449.06" y2="119.57" gradientTransform="matrix(0, -0.89, -0.89, 0, 508.24, 690.98)" xlink:href="#linear-gradient"/><linearGradient id="linear-gradient-26" x1="379.61" y1="-163.22" x2="375.32" y2="-162.25" gradientTransform="matrix(0.14, -0.99, -0.99, -0.14, 190.84, 741.57)" xlink:href="#linear-gradient"/><linearGradient id="linear-gradient-27" x1="372.77" y1="-162.88" x2="368.82" y2="-162.81" gradientTransform="matrix(0.14, -0.99, -0.99, -0.14, 192.12, 731.3)" xlink:href="#linear-gradient"/><linearGradient id="linear-gradient-28" x1="485.99" y1="357.45" x2="481.88" y2="358.8" gradientTransform="translate(0.95 763.13) rotate(-90)" xlink:href="#linear-gradient"/><linearGradient id="linear-gradient-29" x1="478.6" y1="660.21" x2="476.51" y2="660.19" gradientTransform="translate(-299.6 750) rotate(-90)" xlink:href="#linear-gradient"/><linearGradient id="linear-gradient-30" x1="472.03" y1="658.4" x2="460.65" y2="659.39" gradientTransform="translate(-298.19 743.81) rotate(-90)" xlink:href="#linear-gradient"/><linearGradient id="linear-gradient-31" x1="478.33" y1="655.57" x2="475.94" y2="656.82" gradientTransform="translate(-299.6 750) rotate(-90)" xlink:href="#linear-gradient"/><linearGradient id="linear-gradient-32" x1="474.42" y1="654.99" x2="466.47" y2="664.05" gradientTransform="translate(-299.6 750) rotate(-90)" xlink:href="#linear-gradient"/><linearGradient id="linear-gradient-33" x1="449.87" y1="708.51" x2="435.19" y2="708.28" gradientTransform="translate(-273.45 677.17) rotate(-90) scale(0.89)" xlink:href="#linear-gradient"/><linearGradient id="linear-gradient-34" x1="461.1" y1="711.22" x2="449.06" y2="711.93" gradientTransform="translate(-277.02 690.98) rotate(-90) scale(0.89)" xlink:href="#linear-gradient"/><linearGradient id="linear-gradient-35" x1="306.59" y1="360.89" x2="302.31" y2="361.86" gradientTransform="translate(40.38 741.57) rotate(-97.93)" xlink:href="#linear-gradient"/><linearGradient id="linear-gradient-36" x1="299.76" y1="361.22" x2="295.8" y2="361.3" gradientTransform="translate(39.1 731.3) rotate(-97.93)" xlink:href="#linear-gradient"/></defs><circle class="cls-1" cx="202.5" cy="202.5" r="196.5"/><g id="layer1"><g id="g3890"><path id="path3855" class="cls-2" d="M163.58,387.91a4.85,4.85,0,0,0,.17,1.14l.27.63,6.39-1.54.05,22.18c0,.43,0,.87,0,1.31,0,.87,0,1.75,0,2.63,0,1.3-.07,2.61-.13,3.93,0,.07,0,.14,0,.21-.11,2.65-.26,5.33-.43,8-.23,3.61-.48,7.2-.69,10.69-.15,2.58-.28,5.1-.36,7.53,0,1.66-.08,3.28-.07,4.84,0,.77,0,1.52,0,2.26s.06,1.49.12,2.25q0,.57.09,1.14c.1,1.15.23,2.32.39,3.49h0c.1.78.21,1.55.33,2.32s.25,1.54.39,2.3.28,1.51.42,2.24h0c.07.36.14.72.22,1.08.22,1.08.44,2.12.67,3.11h0c.15.66.3,1.29.44,1.9.3,1.22.58,2.33.83,3.29.38,1.45.7,2.56.89,3.22l.2.68.67,2.43a1.37,1.37,0,0,0,.23.47l.12.15a3.33,3.33,0,0,0,.68.56h0a4.83,4.83,0,0,0,.45.26h0a5.24,5.24,0,0,0,.53.25h0a27.86,27.86,0,0,0,6.44,1.59h0l.12,0c.6.09,1.21.18,1.84.25l.13,0,2.22.25h0l1.15.11h0l1.16.1h0l2.4.17h0c2.44.15,4.94.26,7.39.32h0c1.63,0,3.23.05,4.78.05h1c1.55,0,3.15,0,4.78-.05h0c2.45-.06,5-.17,7.39-.32h0l2.4-.17h0l1.16-.1h0l1.15-.11h0l2.22-.25.13,0c.63-.07,1.24-.16,1.84-.25l.12,0h0a27.86,27.86,0,0,0,6.44-1.59h0a5.24,5.24,0,0,0,.53-.25h0a4.83,4.83,0,0,0,.45-.26h0a3.33,3.33,0,0,0,.68-.56l.12-.15a1.61,1.61,0,0,0,.24-.47l.66-2.43.2-.68c.19-.66.51-1.77.89-3.22.25-1,.53-2.07.83-3.29.14-.61.29-1.24.44-1.9h0c.23-1,.45-2,.67-3.11.08-.36.15-.72.22-1.08h0c.14-.73.29-1.48.42-2.24s.27-1.52.39-2.3.23-1.54.33-2.32h0c.16-1.17.29-2.34.39-3.49q.06-.57.09-1.14.09-1.14.12-2.25c0-.74,0-1.49,0-2.26,0-1.56,0-3.18-.07-4.84-.08-2.43-.21-4.95-.36-7.53-.21-3.49-.46-7.08-.69-10.69-.17-2.67-.32-5.35-.43-8,0-.07,0-.14,0-.21-.06-1.32-.1-2.63-.13-3.93,0-.88,0-1.76,0-2.63,0-.44,0-.88,0-1.31l0-22.18,6.38,1.54.27-.63a4.85,4.85,0,0,0,.17-1.14,2.61,2.61,0,0,0,0-.48,1,1,0,0,0,0-.17c0-.05,0-.11,0-.17l-.12-.33a2.75,2.75,0,0,0-.59-.85h0a1.48,1.48,0,0,0-.4-.27l-5.57-2.16.05-19.53c.06-.14.13-.27.19-.4a15.7,15.7,0,0,0,.64-1.57c.09-.26.18-.52.25-.78a17.24,17.24,0,0,0,.58-2.73c.07-.52.12-1.05.16-1.58,0-.27,0-.54.05-.81,0-.55,0-1.1,0-1.66,0-1.13,0-2.31,0-3.55a47.27,47.27,0,0,0-.28-5.3c-.07-.67-.16-1.33-.26-2a34.41,34.41,0,0,0-.78-3.72c-.07-.3-.15-.59-.24-.88-.25-.87-.54-1.71-.85-2.52-.1-.28-.21-.55-.32-.81-.22-.53-.45-1.05-.7-1.55-.12-.25-.24-.5-.37-.75q-.39-.74-.81-1.44c-.14-.23-.29-.46-.44-.69a27,27,0,0,0-2.4-3.18,25.84,25.84,0,0,0-2.22-2.22h0l-.59-.51h0l-.6-.5h0c-.61-.48-1.25-.94-1.9-1.37h0l-.66-.43h0c-.67-.42-1.36-.81-2.07-1.18h0l-.72-.35h0l-.72-.35h0c-.49-.22-1-.43-1.49-.63h0l-.76-.29h0l-.78-.28-.79-.26h0l-.8-.24h0l-.81-.23h0c-.82-.22-1.66-.42-2.51-.6h0l-.86-.16h0a52,52,0,0,0-6.26-.73h0l-.93-.05h0l-1.88-.05h-2.6l-1.88.05h0l-.93.05h0a51.64,51.64,0,0,0-6.25.73h0l-.86.16h0c-.85.18-1.69.38-2.51.6h0l-.81.23h0l-.8.24h0l-.79.26-.78.28h0l-.76.29h0c-.5.2-1,.41-1.49.63h0l-.72.35h0l-.72.35h0c-.71.37-1.4.76-2.07,1.18h0l-.66.43h0c-.65.43-1.29.89-1.9,1.37h0l-.6.5h0l-.59.51h0a25.84,25.84,0,0,0-2.22,2.22,27,27,0,0,0-2.4,3.18l-.44.69q-.42.7-.81,1.44c-.13.25-.25.5-.37.75-.25.5-.48,1-.7,1.55-.11.26-.22.53-.32.81-.31.81-.6,1.65-.85,2.52-.08.29-.17.58-.24.88a34.41,34.41,0,0,0-.78,3.72c-.1.64-.19,1.3-.26,2a47.27,47.27,0,0,0-.28,5.3c0,1.24,0,2.42,0,3.55,0,.56,0,1.11,0,1.66,0,.27,0,.54.05.81,0,.53.09,1.06.16,1.58a17.24,17.24,0,0,0,.58,2.73c.07.26.16.52.25.78a15.7,15.7,0,0,0,.64,1.57l.2.4,0,19.53-5.57,2.16a1.48,1.48,0,0,0-.4.27h0a2.75,2.75,0,0,0-.59.85l-.12.33c0,.06,0,.12,0,.17a1,1,0,0,0,0,.17,2.61,2.61,0,0,0,0,.48Z" transform="translate(-95.14 -186)"/><path id="path2853" class="cls-3" d="M163.58,387.91a4.85,4.85,0,0,0,.17,1.14l.27.63,6.37-1.54.05,22.18c0,13.86-2.05,29.6-1.69,41.4s5,27,5,27l.67,2.43c.94,3.42,17.3,4.57,29.64,4.57h1.2c12.34,0,28.7-1.15,29.64-4.57l.67-2.43s4.62-15.24,5-27-1.72-27.54-1.69-41.4l0-22.18,6.37,1.54.27-.63a4.85,4.85,0,0,0,.17-1.14,2.61,2.61,0,0,0,0-.48,1,1,0,0,0,0-.17c0-.05,0-.11,0-.17l-.12-.33a2.59,2.59,0,0,0-.59-.85h0a1.53,1.53,0,0,0-.41-.27l-5.55-2.16,0-19.53c2.12-4.25,1.91-8.09,1.91-13.08,0-23.69-15.39-33.35-35.79-33.24h-.84c-20.4-.11-35.79,9.55-35.79,33.24,0,5-.21,8.83,1.91,13.08l0,19.53-5.55,2.16a1.53,1.53,0,0,0-.41.27h0a2.59,2.59,0,0,0-.59.85l-.12.33c0,.06,0,.12,0,.17a1,1,0,0,0,0,.17,2.61,2.61,0,0,0,0,.48Z" transform="translate(-95.14 -186)"/><path id="path3643" class="cls-4" d="M227.84,425.26a154.07,154.07,0,0,0,.9,16.85c8.66-4.56,5.38-17.41,5.61-36.53.1-8.83.33-15.92.42-21.6C230.62,392.36,227.84,407.71,227.84,425.26Z" transform="translate(-95.14 -186)"/><path id="path3658" class="cls-5" d="M227.84,425.26c0,.57,0,1.14,0,1.7a10.93,10.93,0,0,0,6.91-2.59c0-.83,0-1.69-.06-2.57a10.62,10.62,0,0,1-6.86,2.79Z" transform="translate(-95.14 -186)"/><path id="path3707" class="cls-6" d="M222.91,320.64l.11.9c.44,3.83,4.61,6.7,9.69,7l1.27.07-.87-.93a28.4,28.4,0,0,0-9.37-6.65Z" transform="translate(-95.14 -186)"/><path id="path3715" class="cls-7" d="M224.87,357.17s-4-14.16-5.69-18.73c-1.74-4.77-7-17.57-7-17.57s7.54,1.55,10.29,5.42c9.75,13.72,9.57,41.35,9.57,41.35" transform="translate(-95.14 -186)"/><path id="path3757" class="cls-8" d="M221.19,341.79l.42.79a2.66,2.66,0,0,1,.68-.42c2.09-.85,5.2,1.91,6.36,4.78,0,.09.15.32.3.6l-.69-2.42c-1.5-3.07-4.1-4.88-6-4.09a2.85,2.85,0,0,0-1,.76Z" transform="translate(-95.14 -186)"/><path id="path3787" class="cls-9" d="M220.4,340.27l.42.79a2.27,2.27,0,0,1,.68-.42c2.08-.86,5.2,1.9,6.36,4.77,0,.09.15.32.3.61l-.69-2.42c-1.51-3.08-4.11-4.89-6.05-4.09a2.61,2.61,0,0,0-1,.76Z" transform="translate(-95.14 -186)"/><path id="path3752" class="cls-10" d="M220.15,339.17l.42.79a2.27,2.27,0,0,1,.68-.42c2.08-.86,5.2,1.9,6.36,4.77l.29.61-.68-2.42c-1.51-3.08-4.11-4.89-6.05-4.09a2.54,2.54,0,0,0-1,.76Z" transform="translate(-95.14 -186)"/><path id="path3735" class="cls-11" d="M219.39,336.16l.33,1.1a3.33,3.33,0,0,1,1-.36c2.85-.55,6.09,3.73,6.84,7.65.12.6,1.53,5.13,1.57,5.72h.73l-2.16-7.37c-1-4.67-4-8-6.8-7.44a3.37,3.37,0,0,0-1.48.7Z" transform="translate(-95.14 -186)"/><path id="path3783" class="cls-12" d="M219.39,336.16l.33,1.1a3.33,3.33,0,0,1,1-.36c2.85-.55,6.09,3.73,6.84,7.65.12.6,1.53,5.13,1.57,5.72h.73l-2.16-7.37c-1-4.67-4-8-6.8-7.44a3.37,3.37,0,0,0-1.48.7Z" transform="translate(-95.14 -186)"/><path id="path3799" class="cls-13" d="M222,344.08l.37.7a2.21,2.21,0,0,1,.61-.37c1.86-.77,4.64,1.7,5.68,4.26,0,.08.13.29.26.54l-.61-2.16c-1.35-2.75-3.67-4.36-5.4-3.65a2.17,2.17,0,0,0-.91.68Z" transform="translate(-95.14 -186)"/><path id="path3803" class="cls-14" d="M222.65,346.53l.37.71a2.3,2.3,0,0,1,.61-.38c1.86-.76,4.64,1.7,5.68,4.27l.27.54L229,349.5c-1.34-2.74-3.66-4.36-5.4-3.65a2.42,2.42,0,0,0-.91.68Z" transform="translate(-95.14 -186)"/><path id="rect3861" class="cls-15" d="M226.15,455c-.36-1.48-.26-2.76,1-3.52l3.18.44c1.1,1.22.88,2.44,0,3.67l-4.24-.59Z" transform="translate(-95.14 -186)"/><path id="path3864" class="cls-16" d="M226.73,451.35c-.21-1.45-.1-2.69,1-3.35l3,.42c.53,1.16.92,2.31,0,3.49l-4-.56Z" transform="translate(-95.14 -186)"/><path id="path4025" class="cls-17" d="M227.4,425.26a155,155,0,0,0,.9,16.9l.07.65.58-.3a10.14,10.14,0,0,0,4.7-5.17,23.61,23.61,0,0,0,1.5-8c.29-6.23-.47-14.21-.36-23.75.11-8.82.34-15.9.42-21.6l-.84-.2C230.16,392.29,227.4,407.66,227.4,425.26Zm.89,0c0-16.2,2.39-30.52,6-39.12-.1,5.33-.28,11.59-.38,19.43-.11,9.59.65,17.59.36,23.71a22.66,22.66,0,0,1-1.43,7.72,9.15,9.15,0,0,1-3.71,4.35A154.16,154.16,0,0,1,228.29,425.26Z" transform="translate(-95.14 -186)"/><path id="rect2864" class="cls-18" d="M183.79,450.12,186,463.93c.77,4.83,8.66,8.7,18.63,9.07,10-.37,17.86-4.24,18.63-9.07l2.22-13.81a4.26,4.26,0,0,0-4.27-4.27H188.06a4.26,4.26,0,0,0-4.27,4.27Z" transform="translate(-95.14 -186)"/><path id="path3703" class="cls-18" d="M177.71,373.43a7.38,7.38,0,0,0,.17,1.56h0l2.18,11.34c1.18,3.16,2.54,5.69,5.69,5.69h37.78c3.15,0,4.51-2.53,5.69-5.69L231.41,375h0a7.38,7.38,0,0,0,.17-1.56c0-8.07-10.19-14.61-26.93-14.63s-26.93,6.56-26.93,14.63Z" transform="translate(-95.14 -186)"/><path id="path4157" class="cls-4" d="M181.44,425.26a154.07,154.07,0,0,1-.9,16.85c-8.66-4.56-5.38-17.41-5.61-36.53-.1-8.83-.33-15.92-.42-21.6C178.66,392.36,181.44,407.71,181.44,425.26Z" transform="translate(-95.14 -186)"/><path id="path4159" class="cls-5" d="M181.44,425.26c0,.57,0,1.14,0,1.7a10.93,10.93,0,0,1-6.91-2.59c0-.83,0-1.69.07-2.57a10.57,10.57,0,0,0,6.85,2.79Z" transform="translate(-95.14 -186)"/><path id="path4161" class="cls-6" d="M186.37,320.64l-.11.9c-.44,3.83-4.61,6.7-9.69,7l-1.27.07.87-.93a28.4,28.4,0,0,1,9.37-6.65Z" transform="translate(-95.14 -186)"/><path id="path4163" class="cls-7" d="M184.41,357.17s4-14.16,5.69-18.73c1.74-4.77,7-17.57,7-17.57s-7.55,1.55-10.3,5.42c-9.75,13.72-9.57,41.35-9.57,41.35" transform="translate(-95.14 -186)"/><path id="path4165" class="cls-19" d="M188.09,341.79l-.42.79a2.66,2.66,0,0,0-.68-.42c-2.09-.85-5.2,1.91-6.36,4.78,0,.09-.15.32-.3.6l.69-2.42c1.5-3.07,4.1-4.88,6-4.09a2.85,2.85,0,0,1,1,.76Z" transform="translate(-95.14 -186)"/><path id="path4167" class="cls-20" d="M188.88,340.27l-.42.79a2.27,2.27,0,0,0-.68-.42c-2.08-.86-5.2,1.9-6.36,4.77,0,.09-.15.32-.3.61l.69-2.42c1.51-3.08,4.11-4.89,6.05-4.09a2.61,2.61,0,0,1,1,.76Z" transform="translate(-95.14 -186)"/><path id="path4169" class="cls-21" d="M189.13,339.17l-.42.79a2.27,2.27,0,0,0-.68-.42c-2.08-.86-5.2,1.9-6.36,4.77l-.29.61.69-2.42c1.5-3.08,4.1-4.89,6-4.09a2.54,2.54,0,0,1,1,.76Z" transform="translate(-95.14 -186)"/><path id="path4171" class="cls-22" d="M189.89,336.16l-.33,1.1a3.33,3.33,0,0,0-1-.36c-2.85-.55-6.09,3.73-6.84,7.65-.12.6-1.53,5.13-1.57,5.72h-.73l2.16-7.37c1-4.67,4-8,6.8-7.44a3.37,3.37,0,0,1,1.48.7Z" transform="translate(-95.14 -186)"/><path id="path4173" class="cls-23" d="M189.89,336.16l-.33,1.1a3.33,3.33,0,0,0-1-.36c-2.85-.55-6.09,3.73-6.84,7.65-.12.6-1.53,5.13-1.57,5.72h-.73l2.16-7.37c1-4.67,4-8,6.8-7.44a3.37,3.37,0,0,1,1.48.7Z" transform="translate(-95.14 -186)"/><path id="path4175" class="cls-24" d="M187.26,344.08l-.37.7a2.21,2.21,0,0,0-.61-.37c-1.86-.77-4.64,1.7-5.68,4.26,0,.08-.13.29-.26.54l.61-2.16c1.35-2.75,3.67-4.36,5.4-3.65a2.17,2.17,0,0,1,.91.68Z" transform="translate(-95.14 -186)"/><path id="path4177" class="cls-25" d="M186.63,346.53l-.37.71a2.3,2.3,0,0,0-.61-.38c-1.86-.76-4.64,1.7-5.68,4.27l-.27.54.62-2.17c1.34-2.74,3.66-4.36,5.4-3.65a2.42,2.42,0,0,1,.91.68Z" transform="translate(-95.14 -186)"/><path id="path4179" class="cls-26" d="M183.13,455c.36-1.48.26-2.76-1-3.52l-3.18.44c-1.1,1.22-.88,2.44,0,3.67l4.24-.59Z" transform="translate(-95.14 -186)"/><path id="path4181" class="cls-27" d="M182.55,451.35c.21-1.45.1-2.69-1-3.35l-3,.42c-.53,1.16-.92,2.31,0,3.49l4-.56Z" transform="translate(-95.14 -186)"/><path id="path4183" class="cls-17" d="M181.88,425.26a155,155,0,0,1-.9,16.9l-.07.65-.58-.3a10.14,10.14,0,0,1-4.7-5.17,23.61,23.61,0,0,1-1.5-8c-.29-6.23.47-14.21.36-23.75-.11-8.82-.34-15.9-.42-21.6l.84-.2C179.12,392.29,181.88,407.66,181.88,425.26Zm-.89,0c0-16.2-2.39-30.52-6-39.12.1,5.33.28,11.59.38,19.43.11,9.59-.65,17.59-.36,23.71a22.66,22.66,0,0,0,1.43,7.72,9.15,9.15,0,0,0,3.71,4.35A154.16,154.16,0,0,0,181,425.26Z" transform="translate(-95.14 -186)"/></g></g><path id="path3855-2" data-name="path3855" class="cls-2" d="M339.14,324.52a4.11,4.11,0,0,0,.17,1.15l.26.62,6.39-1.54.05,22.18c0,.43,0,.87,0,1.31,0,.87,0,1.75,0,2.63,0,1.3-.08,2.61-.13,3.93a1.48,1.48,0,0,0,0,.21c-.12,2.65-.27,5.33-.44,8-.22,3.61-.48,7.2-.69,10.69-.15,2.58-.28,5.1-.35,7.53-.05,1.66-.08,3.28-.07,4.84,0,.77,0,1.52,0,2.26s.06,1.49.11,2.25l.09,1.14c.1,1.15.24,2.32.39,3.49h0c.1.78.22,1.55.34,2.32s.25,1.55.38,2.3.28,1.51.42,2.24h0c.08.36.15.72.22,1.08.22,1.08.45,2.12.67,3.11h0c.15.66.3,1.29.45,1.9.29,1.22.57,2.33.82,3.29.38,1.45.7,2.56.89,3.22l.2.68.67,2.43a1.37,1.37,0,0,0,.23.47l.13.15a3.33,3.33,0,0,0,.68.56h0a5,5,0,0,0,.46.26h0c.16.09.34.17.52.25h0a27.59,27.59,0,0,0,6.44,1.59h0l.13,0c.59.09,1.21.18,1.84.25l.12,0,2.22.25h0l1.15.11h0l1.17.1h0l2.4.17h0c2.43.15,4.94.26,7.39.32h0c1.63,0,3.24.05,4.78.05h1.05c1.54,0,3.15,0,4.78-.05h0c2.45-.06,5-.17,7.39-.32h0l2.4-.17h0l1.17-.1h0l1.15-.11h0l2.22-.25.12,0c.63-.07,1.25-.16,1.84-.25l.13,0h0a27.59,27.59,0,0,0,6.44-1.59h0c.18-.08.36-.16.52-.25h0a5,5,0,0,0,.46-.26h0a3.33,3.33,0,0,0,.68-.56l.13-.15a1.37,1.37,0,0,0,.23-.47l.67-2.43.2-.68c.19-.66.51-1.77.88-3.22.26-1,.54-2.07.83-3.29.15-.61.3-1.24.45-1.9h0c.22-1,.45-2,.67-3.11.07-.36.14-.72.22-1.08h0c.14-.73.28-1.48.42-2.24s.26-1.52.38-2.3.24-1.54.34-2.32h0c.15-1.17.29-2.34.39-3.49l.09-1.14c.05-.76.09-1.51.11-2.25s0-1.49,0-2.26c0-1.56,0-3.18-.07-4.84-.07-2.43-.2-5-.35-7.53-.21-3.49-.47-7.08-.69-10.69-.17-2.67-.32-5.35-.44-8a1.48,1.48,0,0,0,0-.21c-.05-1.32-.1-2.63-.13-3.93,0-.88,0-1.76,0-2.63,0-.44,0-.88,0-1.31l.05-22.18,6.39,1.54.26-.62a4.11,4.11,0,0,0,.17-1.15,2.59,2.59,0,0,0,0-.48c0-.06,0-.11,0-.17s0-.11-.05-.17a2.19,2.19,0,0,0-.12-.33,2.45,2.45,0,0,0-.59-.85h0a1.53,1.53,0,0,0-.41-.27l-5.56-2.16,0-19.53.19-.4a15.82,15.82,0,0,0,.65-1.57c.09-.26.17-.52.25-.78a18.43,18.43,0,0,0,.58-2.73c.07-.52.12-1.05.16-1.58,0-.27,0-.54,0-.81,0-.55,0-1.1,0-1.66,0-1.13,0-2.31,0-3.55a49.76,49.76,0,0,0-.28-5.3c-.07-.67-.16-1.33-.26-2-.21-1.3-.47-2.53-.78-3.72l-.24-.88c-.26-.87-.54-1.71-.85-2.52-.11-.28-.21-.55-.32-.81-.22-.53-.46-1-.7-1.55-.12-.25-.25-.5-.38-.75q-.39-.74-.81-1.44l-.43-.69a27.09,27.09,0,0,0-2.41-3.18,24.37,24.37,0,0,0-2.21-2.22h0l-.59-.51h0l-.61-.5h0c-.62-.48-1.25-.94-1.91-1.37h0l-.67-.43h0c-.67-.42-1.36-.81-2.07-1.18h0l-.71-.35h0l-.73-.35h0q-.74-.33-1.5-.63h0l-.77-.29h0l-.77-.28-.79-.26h0l-.8-.24h0l-.81-.23h0c-.82-.22-1.65-.42-2.5-.59h0l-.85-.17h0a51.81,51.81,0,0,0-6.26-.73h0l-.93-.05h0l-1.88,0H378.9l-1.88,0h0l-.92.05h0a51.81,51.81,0,0,0-6.26.73h0l-.85.17h0c-.85.17-1.68.37-2.5.59h0l-.81.23h0l-.8.24h0l-.79.26-.77.28h0l-.77.29h0q-.76.3-1.5.63h0l-.73.35h0c-.25.11-.49.23-.72.35h0c-.71.37-1.4.76-2.07,1.18h0l-.67.43h0c-.66.43-1.29.89-1.91,1.37h0l-.61.5h0l-.59.51h0a24.37,24.37,0,0,0-2.21,2.22,27.09,27.09,0,0,0-2.41,3.18l-.43.69q-.42.7-.81,1.44c-.13.25-.26.5-.38.75-.24.5-.48,1-.7,1.55-.11.26-.21.53-.32.81-.31.81-.59,1.65-.85,2.52l-.24.88c-.31,1.19-.57,2.42-.78,3.72-.1.64-.18,1.3-.26,2a49.76,49.76,0,0,0-.28,5.3c0,1.24,0,2.42,0,3.55,0,.56,0,1.11.05,1.66,0,.27,0,.54,0,.81,0,.53.09,1.06.16,1.58a18.43,18.43,0,0,0,.58,2.73c.08.26.16.52.25.78a15.82,15.82,0,0,0,.65,1.57l.19.4,0,19.53-5.56,2.16a1.53,1.53,0,0,0-.41.27h0a2.45,2.45,0,0,0-.59.85,2.19,2.19,0,0,0-.12.33c0,.06,0,.12,0,.17s0,.11,0,.17a2.59,2.59,0,0,0,0,.48Z" transform="translate(-95.14 -186)"/><path id="path2853-2" data-name="path2853" class="cls-28" d="M339.14,324.52a4.11,4.11,0,0,0,.17,1.15l.26.62,6.37-1.54.05,22.18c0,13.86-2,29.6-1.69,41.4s5,27,5,27l.67,2.43c.94,3.42,17.31,4.57,29.65,4.57h1.19c12.34,0,28.71-1.15,29.65-4.57l.67-2.43s4.62-15.24,5-27-1.72-27.54-1.69-41.4l.05-22.18,6.37,1.54.26-.62a4.11,4.11,0,0,0,.17-1.15,2.59,2.59,0,0,0,0-.48c0-.06,0-.11,0-.17s0-.11-.05-.17a2.19,2.19,0,0,0-.12-.33,2.57,2.57,0,0,0-.58-.85h0a1.48,1.48,0,0,0-.4-.27l-5.56-2.16.05-19.53c2.12-4.25,1.9-8.09,1.9-13.08,0-23.69-15.39-33.35-35.79-33.24h-.83c-20.4-.11-35.79,9.55-35.79,33.24,0,5-.22,8.83,1.9,13.08l.05,19.53-5.56,2.16a1.48,1.48,0,0,0-.4.27h0a2.57,2.57,0,0,0-.58.85,2.19,2.19,0,0,0-.12.33c0,.06,0,.12,0,.17s0,.11,0,.17a2.59,2.59,0,0,0,0,.48Z" transform="translate(-95.14 -186)"/><path id="path3643-2" data-name="path3643" class="cls-4" d="M403.4,361.87a154.07,154.07,0,0,0,.9,16.85c8.65-4.56,5.38-17.41,5.6-36.53.1-8.83.33-15.92.42-21.6C406.18,329,403.4,344.32,403.4,361.87Z" transform="translate(-95.14 -186)"/><path id="path3658-2" data-name="path3658" class="cls-5" d="M403.4,361.87c0,.57,0,1.14,0,1.7a10.92,10.92,0,0,0,6.9-2.59c0-.83,0-1.69-.06-2.57a10.59,10.59,0,0,1-6.85,2.79Z" transform="translate(-95.14 -186)"/><path id="path3707-2" data-name="path3707" class="cls-6" d="M398.47,257.25l.1.9c.45,3.83,4.62,6.7,9.69,7l1.27.07-.86-.93a28.55,28.55,0,0,0-9.38-6.65Z" transform="translate(-95.14 -186)"/><path id="path3715-2" data-name="path3715" class="cls-7" d="M400.42,293.78s-4-14.16-5.68-18.73c-1.74-4.77-7-17.57-7-17.57s7.55,1.55,10.29,5.42c9.76,13.72,9.58,41.35,9.58,41.35" transform="translate(-95.14 -186)"/><path id="path3757-2" data-name="path3757" class="cls-29" d="M396.75,278.4l.42.79a2.5,2.5,0,0,1,.68-.42c2.08-.85,5.2,1.91,6.36,4.78l.29.6-.69-2.42c-1.5-3.07-4.1-4.88-6-4.09a2.73,2.73,0,0,0-1,.76Z" transform="translate(-95.14 -186)"/><path id="path3787-2" data-name="path3787" class="cls-30" d="M396,276.88l.41.79a2.32,2.32,0,0,1,.69-.42c2.08-.86,5.19,1.9,6.36,4.77,0,.09.15.32.29.61l-.69-2.42c-1.5-3.08-4.1-4.89-6-4.09a2.54,2.54,0,0,0-1,.76Z" transform="translate(-95.14 -186)"/><path id="path3752-2" data-name="path3752" class="cls-31" d="M395.71,275.78l.41.79a2.41,2.41,0,0,1,.68-.42c2.09-.86,5.2,1.9,6.36,4.77,0,.09.15.32.3.61l-.69-2.42c-1.5-3.08-4.1-4.89-6-4.09a2.54,2.54,0,0,0-1,.76Z" transform="translate(-95.14 -186)"/><path id="path3735-2" data-name="path3735" class="cls-32" d="M395,272.77l.32,1.1a3.4,3.4,0,0,1,1-.36c2.85-.55,6.09,3.73,6.84,7.65.11.6,1.52,5.13,1.56,5.72h.74l-2.16-7.37c-1-4.67-4-8-6.8-7.44a3.43,3.43,0,0,0-1.48.7Z" transform="translate(-95.14 -186)"/><path id="path3783-2" data-name="path3783" class="cls-33" d="M395,272.77l.32,1.1a3.4,3.4,0,0,1,1-.36c2.85-.55,6.09,3.73,6.84,7.65.11.6,1.52,5.13,1.56,5.72h.74l-2.16-7.37c-1-4.67-4-8-6.8-7.44a3.43,3.43,0,0,0-1.48.7Z" transform="translate(-95.14 -186)"/><path id="path3799-2" data-name="path3799" class="cls-34" d="M397.57,280.69l.37.7a2.55,2.55,0,0,1,.61-.37c1.86-.77,4.64,1.7,5.68,4.26l.27.54-.62-2.16c-1.34-2.75-3.66-4.36-5.4-3.65a2.32,2.32,0,0,0-.91.68Z" transform="translate(-95.14 -186)"/><path id="path3803-2" data-name="path3803" class="cls-35" d="M398.21,283.14l.37.71a2,2,0,0,1,.61-.38c1.86-.76,4.64,1.7,5.68,4.27,0,.08.13.28.26.54l-.61-2.17c-1.35-2.74-3.67-4.36-5.4-3.65a2.35,2.35,0,0,0-.91.68Z" transform="translate(-95.14 -186)"/><path id="rect3861-2" data-name="rect3861" class="cls-36" d="M401.71,391.57c-.36-1.48-.27-2.76,1-3.52l3.18.44c1.1,1.22.88,2.44,0,3.67l-4.23-.59Z" transform="translate(-95.14 -186)"/><path id="path3864-2" data-name="path3864" class="cls-37" d="M402.29,388c-.22-1.45-.11-2.69,1-3.35l3,.42c.53,1.16.93,2.31,0,3.49l-4-.56Z" transform="translate(-95.14 -186)"/><path id="path4025-2" data-name="path4025" class="cls-17" d="M403,361.87a155,155,0,0,0,.9,16.9l.08.65.57-.3a10.1,10.1,0,0,0,4.7-5.17,23.14,23.14,0,0,0,1.5-8c.3-6.23-.47-14.21-.35-23.75.1-8.82.33-15.9.42-21.6l-.85-.2C405.72,328.9,403,344.27,403,361.87Zm.89,0c0-16.2,2.4-30.52,6-39.12-.11,5.33-.29,11.59-.38,19.43-.11,9.59.65,17.59.36,23.71a22.66,22.66,0,0,1-1.43,7.72,9.22,9.22,0,0,1-3.72,4.35A154.16,154.16,0,0,1,403.84,361.87Z" transform="translate(-95.14 -186)"/><path id="rect2864-2" data-name="rect2864" class="cls-18" d="M359.35,386.73l2.21,13.81c.78,4.83,8.67,8.7,18.63,9.07,10-.37,17.86-4.24,18.64-9.07L401,386.73a4.25,4.25,0,0,0-4.26-4.27H363.61a4.25,4.25,0,0,0-4.26,4.27Z" transform="translate(-95.14 -186)"/><path id="path3703-2" data-name="path3703" class="cls-18" d="M353.26,310a6.79,6.79,0,0,0,.18,1.56h0L355.62,323c1.17,3.16,2.53,5.69,5.69,5.69h37.77c3.16,0,4.52-2.53,5.69-5.69L407,311.61h0a6.79,6.79,0,0,0,.18-1.56c0-8.07-10.2-14.61-26.94-14.63S353.26,302,353.26,310Z" transform="translate(-95.14 -186)"/><path id="path4157-2" data-name="path4157" class="cls-4" d="M357,361.87a154.07,154.07,0,0,1-.9,16.85c-8.65-4.56-5.38-17.41-5.6-36.53-.1-8.83-.33-15.92-.42-21.6C354.21,329,357,344.32,357,361.87Z" transform="translate(-95.14 -186)"/><path id="path4159-2" data-name="path4159" class="cls-5" d="M357,361.87c0,.57,0,1.14,0,1.7a10.92,10.92,0,0,1-6.9-2.59c0-.83,0-1.69.06-2.57A10.59,10.59,0,0,0,357,361.2Z" transform="translate(-95.14 -186)"/><path id="path4161-2" data-name="path4161" class="cls-6" d="M361.92,257.25l-.1.9c-.45,3.83-4.62,6.7-9.69,7l-1.27.07.86-.93a28.55,28.55,0,0,1,9.38-6.65Z" transform="translate(-95.14 -186)"/><path id="path4163-2" data-name="path4163" class="cls-7" d="M360,293.78s4-14.16,5.68-18.73c1.74-4.77,7-17.57,7-17.57s-7.55,1.55-10.29,5.42c-9.76,13.72-9.58,41.35-9.58,41.35" transform="translate(-95.14 -186)"/><path id="path4165-2" data-name="path4165" class="cls-38" d="M363.64,278.4l-.42.79a2.5,2.5,0,0,0-.68-.42c-2.08-.85-5.2,1.91-6.36,4.78l-.29.6.69-2.42c1.5-3.07,4.1-4.88,6-4.09a2.73,2.73,0,0,1,1,.76Z" transform="translate(-95.14 -186)"/><path id="path4167-2" data-name="path4167" class="cls-39" d="M364.43,276.88l-.41.79a2.32,2.32,0,0,0-.69-.42c-2.08-.86-5.19,1.9-6.36,4.77,0,.09-.15.32-.29.61l.69-2.42c1.5-3.08,4.1-4.89,6-4.09a2.54,2.54,0,0,1,1,.76Z" transform="translate(-95.14 -186)"/><path id="path4169-2" data-name="path4169" class="cls-40" d="M364.68,275.78l-.41.79a2.32,2.32,0,0,0-.69-.42c-2.08-.86-5.19,1.9-6.35,4.77,0,.09-.15.32-.3.61l.69-2.42c1.5-3.08,4.1-4.89,6-4.09a2.54,2.54,0,0,1,1,.76Z" transform="translate(-95.14 -186)"/><path id="path4171-2" data-name="path4171" class="cls-41" d="M365.44,272.77l-.32,1.1a3.4,3.4,0,0,0-1-.36c-2.85-.55-6.09,3.73-6.84,7.65-.11.6-1.52,5.13-1.56,5.72H355l2.16-7.37c1-4.67,4-8,6.8-7.44a3.43,3.43,0,0,1,1.48.7Z" transform="translate(-95.14 -186)"/><path id="path4173-2" data-name="path4173" class="cls-42" d="M365.44,272.77l-.32,1.1a3.4,3.4,0,0,0-1-.36c-2.85-.55-6.09,3.73-6.84,7.65-.11.6-1.52,5.13-1.56,5.72H355l2.16-7.37c1-4.67,4-8,6.8-7.44a3.43,3.43,0,0,1,1.48.7Z" transform="translate(-95.14 -186)"/><path id="path4175-2" data-name="path4175" class="cls-43" d="M362.82,280.69l-.37.7a2.55,2.55,0,0,0-.61-.37c-1.86-.77-4.64,1.7-5.68,4.26l-.27.54.62-2.16c1.34-2.75,3.66-4.36,5.4-3.65a2.32,2.32,0,0,1,.91.68Z" transform="translate(-95.14 -186)"/><path id="path4177-2" data-name="path4177" class="cls-44" d="M362.18,283.14l-.37.71a2,2,0,0,0-.61-.38c-1.86-.76-4.64,1.7-5.68,4.27,0,.08-.13.28-.26.54l.61-2.17c1.35-2.74,3.67-4.36,5.4-3.65a2.35,2.35,0,0,1,.91.68Z" transform="translate(-95.14 -186)"/><path id="path4179-2" data-name="path4179" class="cls-45" d="M358.68,391.57c.36-1.48.27-2.76-1-3.52l-3.18.44c-1.1,1.22-.88,2.44,0,3.67l4.23-.59Z" transform="translate(-95.14 -186)"/><path id="path4181-2" data-name="path4181" class="cls-46" d="M358.1,388c.22-1.45.11-2.69-1-3.35l-3,.42c-.53,1.16-.93,2.31,0,3.49l4-.56Z" transform="translate(-95.14 -186)"/><path id="path4183-2" data-name="path4183" class="cls-17" d="M357.44,361.87a155,155,0,0,1-.9,16.9l-.08.65-.57-.3a10.1,10.1,0,0,1-4.7-5.17,23.14,23.14,0,0,1-1.5-8c-.3-6.23.47-14.21.35-23.75-.1-8.82-.33-15.9-.42-21.6l.85-.2C354.67,328.9,357.44,344.27,357.44,361.87Zm-.89,0c0-16.2-2.4-30.52-6-39.12.11,5.33.29,11.59.38,19.43.11,9.59-.65,17.59-.36,23.71a22.66,22.66,0,0,0,1.43,7.72,9.17,9.17,0,0,0,3.72,4.35A154.16,154.16,0,0,0,356.55,361.87Z" transform="translate(-95.14 -186)"/><rect class="cls-47" x="195.77" y="6.55" width="7.82" height="81.95"/><rect class="cls-47" x="196.04" y="104.49" width="7.64" height="80.01"/><rect class="cls-47" x="196.04" y="199.49" width="7.64" height="80.01"/><rect class="cls-47" x="196.04" y="296.49" width="7.64" height="80.01"/><rect class="cls-47" x="196.04" y="386.53" width="7.64" height="15.99"/></svg>