<svg id="Layer_1" data-name="Layer 1" xmlns="http://www.w3.org/2000/svg" xmlns:xlink="http://www.w3.org/1999/xlink" viewBox="0 0 405 405"><defs><style>.cls-1,.cls-7{fill:none;}.cls-1{stroke:#fff;stroke-miterlimit:10;stroke-width:12px;}.cls-2,.cls-5{fill:#010101;}.cls-18,.cls-2,.cls-3,.cls-4,.cls-5{fill-opacity:1;}.cls-18,.cls-2,.cls-6{stroke:#1a1a1a;}.cls-2{stroke-width:14px;}.cls-3{fill:#ca1517;}.cls-18,.cls-4{fill:#262626;}.cls-17,.cls-18,.cls-4{opacity:0.9;}.cls-17,.cls-18,.cls-4,.cls-5,.cls-7{isolation:isolate;}.cls-5,.cls-7{opacity:0.5;}.cls-6{fill:#202121;}.cls-18,.cls-6{stroke-width:5px;}.cls-7{stroke:#2a292a;stroke-linecap:round;stroke-linejoin:round;stroke-width:6px;}.cls-8{fill:url(#linear-gradient);}.cls-9{fill:url(#linear-gradient-2);}.cls-10{fill:url(#linear-gradient-3);}.cls-11{fill:url(#linear-gradient-4);}.cls-12{fill:url(#linear-gradient-5);}.cls-13{fill:url(#linear-gradient-6);}.cls-14{fill:url(#linear-gradient-7);}.cls-15{fill:url(#linear-gradient-8);}.cls-16{fill:url(#linear-gradient-9);}.cls-17{fill:#1a1a1a;}.cls-19{fill:url(#linear-gradient-10);}.cls-20{fill:url(#linear-gradient-11);}.cls-21{fill:url(#linear-gradient-12);}.cls-22{fill:url(#linear-gradient-13);}.cls-23{fill:url(#linear-gradient-14);}.cls-24{fill:url(#linear-gradient-15);}.cls-25{fill:url(#linear-gradient-16);}.cls-26{fill:url(#linear-gradient-17);}.cls-27{fill:url(#linear-gradient-18);}</style><linearGradient id="linear-gradient" x1="468.24" y1="-33.08" x2="466.18" y2="-32.4" gradientTransform="matrix(-0.85, -0.53, -0.53, 0.85, 637.03, 591.49)" gradientUnits="userSpaceOnUse"><stop offset="0" stop-color="#1b1b1b"/><stop offset="1" stop-color="#e41d19" stop-opacity="0"/></linearGradient><linearGradient id="linear-gradient-2" x1="457.98" y1="268.58" x2="456.94" y2="268.58" gradientTransform="matrix(-0.85, -0.53, -0.53, 0.85, 786.19, 330.22)" xlink:href="#linear-gradient"/><linearGradient id="linear-gradient-3" x1="451.6" y1="266.97" x2="445.91" y2="267.47" gradientTransform="matrix(-0.85, -0.53, -0.53, 0.85, 780.2, 328.12)" xlink:href="#linear-gradient"/><linearGradient id="linear-gradient-4" x1="457.85" y1="266.26" x2="456.65" y2="266.89" gradientTransform="matrix(-0.85, -0.53, -0.53, 0.85, 786.19, 330.22)" xlink:href="#linear-gradient"/><linearGradient id="linear-gradient-5" x1="455.89" y1="265.98" x2="451.91" y2="270.5" gradientTransform="matrix(-0.85, -0.53, -0.53, 0.85, 786.19, 330.22)" xlink:href="#linear-gradient"/><linearGradient id="linear-gradient-6" x1="428.97" y1="270.74" x2="421.63" y2="270.63" gradientTransform="matrix(-0.76, -0.48, -0.48, 0.76, 710.63, 313.52)" xlink:href="#linear-gradient"/><linearGradient id="linear-gradient-7" x1="442.31" y1="274.1" x2="436.29" y2="274.46" gradientTransform="matrix(-0.76, -0.48, -0.48, 0.76, 724.22, 317.86)" xlink:href="#linear-gradient"/><linearGradient id="linear-gradient-8" x1="397.65" y1="-19.26" x2="395.51" y2="-18.77" gradientTransform="matrix(-0.76, -0.64, -0.64, 0.76, 597.76, 613.34)" xlink:href="#linear-gradient"/><linearGradient id="linear-gradient-9" x1="389.07" y1="-19.17" x2="387.09" y2="-19.13" gradientTransform="matrix(-0.76, -0.64, -0.64, 0.76, 589.77, 606.79)" xlink:href="#linear-gradient"/><linearGradient id="linear-gradient-10" x1="468.24" y1="240.59" x2="466.18" y2="241.27" gradientTransform="matrix(-0.85, -0.53, 0.53, -0.85, 514.75, 785.48)" xlink:href="#linear-gradient"/><linearGradient id="linear-gradient-11" x1="457.98" y1="542.25" x2="456.94" y2="542.25" gradientTransform="matrix(-0.85, -0.53, 0.53, -0.85, 343.38, 1032.74)" xlink:href="#linear-gradient"/><linearGradient id="linear-gradient-12" x1="451.6" y1="540.64" x2="445.91" y2="541.14" gradientTransform="matrix(-0.85, -0.53, 0.53, -0.85, 338.9, 1028.25)" xlink:href="#linear-gradient"/><linearGradient id="linear-gradient-13" x1="457.85" y1="539.94" x2="456.65" y2="540.56" gradientTransform="matrix(-0.85, -0.53, 0.53, -0.85, 343.38, 1032.74)" xlink:href="#linear-gradient"/><linearGradient id="linear-gradient-14" x1="455.89" y1="539.65" x2="451.91" y2="544.18" gradientTransform="matrix(-0.85, -0.53, 0.53, -0.85, 343.38, 1032.74)" xlink:href="#linear-gradient"/><linearGradient id="linear-gradient-15" x1="428.97" y1="577.1" x2="421.63" y2="576.99" gradientTransform="translate(295.72 971.78) rotate(-147.78) scale(0.89)" xlink:href="#linear-gradient"/><linearGradient id="linear-gradient-16" x1="442.31" y1="580.45" x2="436.29" y2="580.81" gradientTransform="translate(305.49 982.17) rotate(-147.78) scale(0.89)" xlink:href="#linear-gradient"/><linearGradient id="linear-gradient-17" x1="359.89" y1="251.79" x2="357.75" y2="252.28" gradientTransform="translate(517.53 740.63) rotate(-155.71)" xlink:href="#linear-gradient"/><linearGradient id="linear-gradient-18" x1="351.3" y1="251.89" x2="349.32" y2="251.92" gradientTransform="translate(508.17 736.24) rotate(-155.71)" xlink:href="#linear-gradient"/></defs><circle class="cls-1" cx="202.5" cy="202.5" r="196.5"/><line class="cls-1" x1="72.56" y1="241.77" x2="246.21" y2="70.55"/><line class="cls-1" x1="248.06" y1="66.27" x2="248.06" y2="342.73"/><line class="cls-1" x1="193.76" y1="311.03" x2="244.78" y2="337.42"/><g id="layer1"><g id="g3890"><path id="path3855" class="cls-2" d="M261.83,353a2.36,2.36,0,0,0,.53.24l.34.05,1.05-3.11,9.39,5.89.55.35,1.11.72,1.62,1.1.09.06c1.09.76,2.19,1.54,3.27,2.32l4.34,3.14c1.05.75,2.08,1.48,3.09,2.16.69.46,1.36.91,2,1.32l1,.59,1,.55.5.26c.52.27,1.05.52,1.58.77h0l1.08.48,1.07.45,1.06.41h0l.52.19c.51.2,1,.38,1.49.55h0l.93.32,1.61.53,1.6.48.34.1,1.21.36a.72.72,0,0,0,.26,0h.09a2.07,2.07,0,0,0,.42-.14h0a1.34,1.34,0,0,0,.24-.12h0l.24-.16h0a13.33,13.33,0,0,0,2.38-2.3h0l0-.05.6-.71,0-.05q.35-.42.69-.87h0l.36-.46h0c.11-.16.23-.31.35-.47h0c.24-.32.48-.64.71-1h0c.71-1,1.42-2,2.1-3h0c.45-.68.89-1.35,1.3-2,0-.08.09-.15.14-.23s.09-.14.14-.21c.41-.66.83-1.34,1.25-2h0c.63-1.06,1.25-2.14,1.84-3.21h0l.56-1.06h0l.26-.52h0l.26-.52h0c.17-.34.33-.67.48-1l0-.06c.14-.29.26-.57.38-.85l0,0h0a14.31,14.31,0,0,0,1.05-3.14h0l0-.29h0a2.35,2.35,0,0,0,0-.26h0a1.44,1.44,0,0,0-.05-.44l0-.09a.74.74,0,0,0-.14-.23l-.85-.93-.23-.26-1.12-1.24c-.34-.36-.74-.78-1.18-1.22l-.68-.7h0l-1.13-1.12c-.14-.12-.27-.25-.4-.38h0l-.83-.77-.87-.78-.89-.76h0c-.46-.38-.91-.74-1.37-1.09l-.46-.35-.92-.65-.95-.61c-.66-.43-1.35-.84-2.07-1.27-1-.61-2.15-1.23-3.28-1.85l-4.7-2.56c-1.18-.64-2.35-1.29-3.5-2l-.09,0-1.7-1-1.12-.69-.56-.35L282,321.26l2.36-2.29-.2-.28a1.94,1.94,0,0,0-.44-.38,1,1,0,0,0-.21-.11l-.08,0-.08,0-.18,0a1.25,1.25,0,0,0-.51,0h0a.91.91,0,0,0-.22.11L280,320l-8.26-5.22-.11-.19a7.63,7.63,0,0,0-.49-.69l-.27-.32a9.16,9.16,0,0,0-1-1c-.2-.17-.41-.33-.63-.49a3.88,3.88,0,0,0-.33-.23c-.22-.16-.45-.31-.68-.46l-1.51-.95c-.78-.49-1.55-.92-2.31-1.3l-.91-.41a16.8,16.8,0,0,0-1.78-.66l-.43-.14c-.44-.12-.87-.22-1.3-.31l-.42-.08-.85-.12-.41,0-.83,0h-.4a14.43,14.43,0,0,0-2,.17,13.06,13.06,0,0,0-1.53.35h0l-.38.11h0l-.37.13h0c-.37.13-.73.28-1.09.44h0l-.36.17h0c-.36.17-.71.36-1.05.56h0l-.34.21h0l-.34.22h0c-.22.15-.44.3-.66.47h0l-.33.25h0l-.33.25L248,311h0l-.32.27h0l-.31.29h0c-.31.29-.62.59-.92.9h0l-.3.32h0a27.11,27.11,0,0,0-2,2.45h0l-.27.38h0c-.18.26-.35.51-.52.78h0l-.26.41-.09.14-.09.14-.25.41h0q-.26.4-.48.81h0l-.22.4h0a25.23,25.23,0,0,0-1.35,2.84h0c-.06.14-.11.27-.16.41h0c-.16.41-.3.81-.42,1.22h0l-.12.4h0c0,.13-.08.27-.11.4h0c0,.14-.06.27-.1.41l-.09.4h0c0,.13,0,.27-.08.4h0c-.05.27-.09.54-.13.8h0c0,.13,0,.26,0,.4h0c0,.13,0,.26,0,.4h0a11.85,11.85,0,0,0-.06,1.19h0v.4h0c0,.39,0,.78.08,1.17h0c0,.13,0,.26,0,.39h0l.06.39h0a13.06,13.06,0,0,0,.35,1.53,13.7,13.7,0,0,0,.7,1.87l.18.36c.12.25.25.49.39.73s.14.24.22.36.3.47.47.71l.25.35c.26.35.54.69.84,1l.31.34a17.26,17.26,0,0,0,1.37,1.32c.24.21.5.42.76.63a24.47,24.47,0,0,0,2.17,1.53c.53.34,1,.66,1.5.95l.71.42.36.2c.23.13.47.25.71.36a9.75,9.75,0,0,0,1.31.48l.4.1c.27.06.54.11.83.15l.22,0,8.28,5.19-.57,2.93a1,1,0,0,0,0,.24h0a1.22,1.22,0,0,0,.2.47,1.71,1.71,0,0,0,.11.14l.06.07.06.06.19.14Z" transform="translate(-95.14 -34.71)"/><path id="path2853" class="cls-3" d="M261.83,353a2.36,2.36,0,0,0,.53.24l.34.05,1-3.1,9.4,5.89c5.87,3.68,12,8.76,17.06,11.75S303,373,303,373l1.21.37c1.7.51,6.55-6.1,9.84-11.32l.16-.26c.05-.08.11-.16.16-.25,3.29-5.22,7.16-12.44,6-13.75l-.85-.94s-5.21-6-10.11-9.31-12.11-6.62-18-10.32L282,321.25l2.35-2.28-.2-.28a1.94,1.94,0,0,0-.44-.38,1,1,0,0,0-.21-.11l-.08,0-.08,0-.18,0a1.25,1.25,0,0,0-.51,0h0a.88.88,0,0,0-.22.1L280,320l-8.25-5.23c-1.23-2-2.92-3-5-4.29-10-6.32-18.21-2.39-23.6,6.27a1699000711596.12,1699000711596.12,0,0,1-.22.36c-5.49,8.6-5.5,17.68,4.52,24,2.11,1.33,3.67,2.44,6,2.68l8.27,5.19-.56,2.92a.49.49,0,0,0,0,.24h0a1.22,1.22,0,0,0,.2.47,1.71,1.71,0,0,0,.11.14l.06.07.06.06.19.14Z" transform="translate(-95.14 -34.71)"/><path id="path3643" class="cls-4" d="M294.76,335.82a77.22,77.22,0,0,0,7.37,4.11c.38-4.87-5.93-6.91-14-12.11-3.71-2.4-6.64-4.38-9-5.93C281.59,325.87,287.34,331.14,294.76,335.82Z" transform="translate(-95.14 -34.71)"/><path id="path3658" class="cls-5" d="M294.76,335.82l.73.45a5.47,5.47,0,0,0,.74-3.61l-1.1-.66a5.31,5.31,0,0,1-.65,3.64Z" transform="translate(-95.14 -34.71)"/><path id="path3707" class="cls-6" d="M249.19,310l.42.2c1.73.83,4.06-.17,5.53-2.24l.37-.52-.63.12a14.32,14.32,0,0,0-5.31,2.19Z" transform="translate(-95.14 -34.71)"/><path id="path3715" class="cls-7" d="M265.17,318.93s-7.06-2.08-9.44-2.59-9.29-1.75-9.29-1.75,2.67-2.77,5-2.9c8.41-.47,20,7,20,7" transform="translate(-95.14 -34.71)"/><path id="path3757" class="cls-8" d="M257.69,316.38l.44,0a1.34,1.34,0,0,1,0-.4c.2-1.11,2.2-1.69,3.72-1.41l.33,0-1.2-.35c-1.7-.19-3.16.43-3.34,1.47a1.23,1.23,0,0,0,.05.63Z" transform="translate(-95.14 -34.71)"/><path id="path3787" class="cls-9" d="M256.83,316.31l.44,0a1.08,1.08,0,0,1,0-.4c.19-1.11,2.19-1.69,3.71-1.42l.34,0-1.21-.35c-1.7-.19-3.16.43-3.34,1.46a1.26,1.26,0,0,0,.05.64Z" transform="translate(-95.14 -34.71)"/><path id="path3752" class="cls-10" d="M256.3,316.12l.44,0a1.13,1.13,0,0,1,0-.41c.19-1.1,2.19-1.68,3.71-1.41l.34,0-1.21-.35c-1.7-.18-3.16.43-3.34,1.47a1.23,1.23,0,0,0,.05.63Z" transform="translate(-95.14 -34.71)"/><path id="path3735" class="cls-11" d="M254.82,315.64l.56.16a1.71,1.71,0,0,1,.1-.51c.53-1.35,3.2-1.58,5.06-.86.29.12,2.58.73,2.84.87l.19-.31-3.69-1.05c-2.23-.84-4.44-.45-5,.89a1.71,1.71,0,0,0-.1.81Z" transform="translate(-95.14 -34.71)"/><path id="path3783" class="cls-12" d="M254.82,315.64l.56.16a1.71,1.71,0,0,1,.1-.51c.53-1.35,3.2-1.58,5.06-.86.29.12,2.58.73,2.84.87l.19-.31-3.69-1.05c-2.23-.84-4.44-.45-5,.89a1.71,1.71,0,0,0-.1.81Z" transform="translate(-95.14 -34.71)"/><path id="path3799" class="cls-13" d="M258.87,316.64l.4,0a1.09,1.09,0,0,1,0-.36c.18-1,2-1.51,3.32-1.26l.3,0-1.08-.32c-1.52-.16-2.82.39-3,1.31a1.11,1.11,0,0,0,0,.57Z" transform="translate(-95.14 -34.71)"/><path id="path3803" class="cls-14" d="M260.08,317l.4,0a1.09,1.09,0,0,1,0-.36c.17-1,2-1.51,3.32-1.27l.3,0-1.08-.32c-1.52-.16-2.82.39-3,1.31a1.23,1.23,0,0,0,.05.57Z" transform="translate(-95.14 -34.71)"/><path id="rect3861" class="cls-15" d="M306.87,344.45c-.72-.24-1.23-.62-1.21-1.37l1-1.23a1.34,1.34,0,0,1,1.56,1l-1.38,1.63Z" transform="translate(-95.14 -34.71)"/><path id="path3864" class="cls-16" d="M305.5,343.25c-.67-.3-1.16-.68-1.15-1.31l1-1.17c.63.09,1.23.23,1.49.92l-1.32,1.56Z" transform="translate(-95.14 -34.71)"/><path id="path4025" class="cls-17" d="M294.65,336a76.3,76.3,0,0,0,7.38,4.12l.3.15,0-.33a5,5,0,0,0-.93-3.36,11.54,11.54,0,0,0-3-2.77c-2.55-1.79-6.13-3.6-10.14-6.18-3.7-2.4-6.64-4.39-9-5.94l-.31.3C281.44,326.05,287.2,331.32,294.65,336Zm.23-.38c-6.85-4.32-12.27-9.15-14.95-13,2.23,1.46,4.83,3.21,8.12,5.34,4,2.6,7.62,4.41,10.13,6.17a11.38,11.38,0,0,1,2.88,2.66,4.58,4.58,0,0,1,.85,2.73A74.58,74.58,0,0,1,294.88,335.63Z" transform="translate(-95.14 -34.71)"/><path id="rect2864" class="cls-18" d="M293.53,361.08l6.44,2.75c2.25,1,6-1.35,8.8-5.47,2.5-4.31,3-8.68,1.13-10.3l-5.25-4.62a2.13,2.13,0,0,0-2.94.67l-8.85,14a2.13,2.13,0,0,0,.67,2.94Z" transform="translate(-95.14 -34.71)"/><path id="path3703" class="cls-18" d="M259.47,343.21a3.85,3.85,0,0,0,.71.34h0l5.38,2.1c1.65.34,3.09.44,3.93-.89l10.07-16c.84-1.34.13-2.59-.89-3.93l-4.22-3.95h0a4,4,0,0,0-.61-.48c-3.42-2.16-8.9.41-13.37,7.49s-4.41,13.14-1,15.29Z" transform="translate(-95.14 -34.71)"/><path id="path4157" class="cls-4" d="M282.39,355.45a76.85,76.85,0,0,1,6.89,4.87c-4.24,2.45-8.8-2.36-16.95-7.37-3.76-2.31-6.82-4.1-9.25-5.58C267.73,347.85,275,350.77,282.39,355.45Z" transform="translate(-95.14 -34.71)"/><path id="path4159" class="cls-5" d="M282.39,355.45l.72.46a5.53,5.53,0,0,1-2.94,2.23l-1.07-.71a5.29,5.29,0,0,0,3-2.16Z" transform="translate(-95.14 -34.71)"/><path id="path4161" class="cls-6" d="M239.45,325.47l.36.29c1.5,1.21,1.6,3.73.37,6l-.31.55-.17-.61a14.2,14.2,0,0,1-.31-5.74Z" transform="translate(-95.14 -34.71)"/><path id="path4163" class="cls-7" d="M254.38,336s-4.92-5.48-6.4-7.4S242.4,321,242.4,321s-1.36,3.61-.45,5.8c3.2,7.78,14.94,15.07,14.94,15.07" transform="translate(-95.14 -34.71)"/><path id="path4165" class="cls-19" d="M248.86,330.38l.22.39a1.22,1.22,0,0,0-.36.18c-.92.65-.58,2.7.33,4l.17.29-.84-.94c-.9-1.46-1-3-.12-3.65a1.42,1.42,0,0,1,.6-.23Z" transform="translate(-95.14 -34.71)"/><path id="path4167" class="cls-20" d="M248.43,329.64l.22.39a1.22,1.22,0,0,0-.36.18c-.92.65-.58,2.7.32,4l.18.28-.84-.93c-.9-1.46-1-3-.12-3.65a1.42,1.42,0,0,1,.6-.23Z" transform="translate(-95.14 -34.71)"/><path id="path4169" class="cls-21" d="M248,329.24l.22.39a1.22,1.22,0,0,0-.36.18c-.92.65-.58,2.7.32,4,0,0,.1.15.18.29l-.84-.94c-.9-1.46-1-3-.12-3.65a1.42,1.42,0,0,1,.6-.23Z" transform="translate(-95.14 -34.71)"/><path id="path4171" class="cls-22" d="M247,328.12l.38.43a1.67,1.67,0,0,0-.42.32c-1,1.06,0,3.57,1.41,4.93.23.21,1.77,2,2,2.19l-.2.31-2.54-2.88c-1.72-1.66-2.32-3.82-1.34-4.86a1.7,1.7,0,0,1,.7-.44Z" transform="translate(-95.14 -34.71)"/><path id="path4173" class="cls-23" d="M247,328.12l.38.43a1.67,1.67,0,0,0-.42.32c-1,1.06,0,3.57,1.41,4.93.23.21,1.77,2,2,2.19l-.2.31-2.54-2.88c-1.72-1.66-2.32-3.82-1.34-4.86a1.7,1.7,0,0,1,.7-.44Z" transform="translate(-95.14 -34.71)"/><path id="path4175" class="cls-24" d="M249.61,331.34l.19.35a1,1,0,0,0-.32.15c-.82.59-.51,2.42.29,3.54l.16.26-.75-.84c-.8-1.3-.87-2.71-.11-3.25a1.16,1.16,0,0,1,.54-.21Z" transform="translate(-95.14 -34.71)"/><path id="path4177" class="cls-25" d="M250.47,332.26l.2.35a1.07,1.07,0,0,0-.32.16c-.82.58-.52,2.41.29,3.54a1.86,1.86,0,0,1,.16.25l-.75-.83c-.81-1.3-.87-2.72-.11-3.26a1.28,1.28,0,0,1,.53-.21Z" transform="translate(-95.14 -34.71)"/><path id="path4179" class="cls-26" d="M295.4,362.65a1.42,1.42,0,0,0-1.76-.5l-.66,1.46a1.32,1.32,0,0,0,1.54,1l.88-2Z" transform="translate(-95.14 -34.71)"/><path id="path4181" class="cls-27" d="M293.72,361.94c-.55-.48-1.11-.77-1.67-.48l-.63,1.39c.34.53.73,1,1.47.94l.83-1.85Z" transform="translate(-95.14 -34.71)"/><path id="path4183" class="cls-17" d="M282.51,355.26a78.79,78.79,0,0,1,6.91,4.89l.25.2-.28.17a5.09,5.09,0,0,1-3.44.61,11.92,11.92,0,0,1-3.79-1.51c-2.71-1.53-5.88-4-9.94-6.48-3.77-2.31-6.82-4.1-9.25-5.58l.14-.41C267.83,347.64,275.07,350.57,282.51,355.26Zm-.24.38c-6.85-4.32-13.55-7.13-18.14-7.9,2.28,1.38,5,3,8.32,5,4.08,2.51,7.27,5,9.93,6.48a11.48,11.48,0,0,0,3.65,1.45,4.56,4.56,0,0,0,2.83-.41A77.51,77.51,0,0,0,282.27,355.64Z" transform="translate(-95.14 -34.71)"/></g></g></svg>