<svg id="Layer_1" data-name="Layer 1" xmlns="http://www.w3.org/2000/svg" xmlns:xlink="http://www.w3.org/1999/xlink" viewBox="0 0 405 405"><defs><style>.cls-1,.cls-30,.cls-9{fill:none;}.cls-1,.cls-2{stroke:#fff;}.cls-1,.cls-2,.cls-3,.cls-30{stroke-miterlimit:10;}.cls-1{stroke-width:12px;}.cls-2{fill:#fff;}.cls-3{fill:#e30613;stroke:#e30613;}.cls-3,.cls-30{stroke-width:10px;}.cls-4,.cls-7{fill:#010101;}.cls-20,.cls-31,.cls-4,.cls-5,.cls-6,.cls-7{fill-opacity:1;}.cls-20,.cls-4,.cls-8{stroke:#1a1a1a;}.cls-4{stroke-width:14px;}.cls-5{fill:#ca1517;}.cls-20,.cls-6{fill:#262626;}.cls-19,.cls-20,.cls-6{opacity:0.9;}.cls-19,.cls-20,.cls-6,.cls-7,.cls-9{isolation:isolate;}.cls-7,.cls-9{opacity:0.5;}.cls-8{fill:#202121;}.cls-20,.cls-8{stroke-width:5px;}.cls-9{stroke:#2a292a;stroke-linecap:round;stroke-linejoin:round;stroke-width:6px;}.cls-10{fill:url(#linear-gradient);}.cls-11{fill:url(#linear-gradient-2);}.cls-12{fill:url(#linear-gradient-3);}.cls-13{fill:url(#linear-gradient-4);}.cls-14{fill:url(#linear-gradient-5);}.cls-15{fill:url(#linear-gradient-6);}.cls-16{fill:url(#linear-gradient-7);}.cls-17{fill:url(#linear-gradient-8);}.cls-18{fill:url(#linear-gradient-9);}.cls-19{fill:#1a1a1a;}.cls-21{fill:url(#linear-gradient-10);}.cls-22{fill:url(#linear-gradient-11);}.cls-23{fill:url(#linear-gradient-12);}.cls-24{fill:url(#linear-gradient-13);}.cls-25{fill:url(#linear-gradient-14);}.cls-26{fill:url(#linear-gradient-15);}.cls-27{fill:url(#linear-gradient-16);}.cls-28{fill:url(#linear-gradient-17);}.cls-29{fill:url(#linear-gradient-18);}.cls-30{stroke:#f9b233;}.cls-31{fill:#f9b233;}.cls-32{fill:url(#linear-gradient-19);}.cls-33{fill:url(#linear-gradient-20);}.cls-34{fill:url(#linear-gradient-21);}.cls-35{fill:url(#linear-gradient-22);}.cls-36{fill:url(#linear-gradient-23);}.cls-37{fill:url(#linear-gradient-24);}.cls-38{fill:url(#linear-gradient-25);}.cls-39{fill:url(#linear-gradient-26);}.cls-40{fill:url(#linear-gradient-27);}.cls-41{fill:url(#linear-gradient-28);}.cls-42{fill:url(#linear-gradient-29);}.cls-43{fill:url(#linear-gradient-30);}.cls-44{fill:url(#linear-gradient-31);}.cls-45{fill:url(#linear-gradient-32);}.cls-46{fill:url(#linear-gradient-33);}.cls-47{fill:url(#linear-gradient-34);}.cls-48{fill:url(#linear-gradient-35);}.cls-49{fill:url(#linear-gradient-36);}</style><linearGradient id="linear-gradient" x1="450.81" y1="4" x2="448.75" y2="4.68" gradientTransform="matrix(0.36, -0.93, -0.93, -0.36, 80.05, 741.03)" gradientUnits="userSpaceOnUse"><stop offset="0" stop-color="#1b1b1b"/><stop offset="1" stop-color="#e41d19" stop-opacity="0"/></linearGradient><linearGradient id="linear-gradient-2" x1="440.55" y1="305.66" x2="439.5" y2="305.66" gradientTransform="matrix(0.36, -0.93, -0.93, -0.36, 365.68, 835.5)" xlink:href="#linear-gradient"/><linearGradient id="linear-gradient-3" x1="434.17" y1="304.05" x2="428.48" y2="304.55" gradientTransform="matrix(0.36, -0.93, -0.93, -0.36, 366.55, 829.21)" xlink:href="#linear-gradient"/><linearGradient id="linear-gradient-4" x1="440.41" y1="303.35" x2="439.21" y2="303.97" gradientTransform="matrix(0.36, -0.93, -0.93, -0.36, 365.68, 835.5)" xlink:href="#linear-gradient"/><linearGradient id="linear-gradient-5" x1="438.45" y1="303.06" x2="434.48" y2="307.59" gradientTransform="matrix(0.36, -0.93, -0.93, -0.36, 365.68, 835.5)" xlink:href="#linear-gradient"/><linearGradient id="linear-gradient-6" x1="409.45" y1="312.26" x2="402.11" y2="312.14" gradientTransform="matrix(0.32, -0.84, -0.84, -0.32, 367.09, 758.13)" xlink:href="#linear-gradient"/><linearGradient id="linear-gradient-7" x1="422.8" y1="315.61" x2="416.78" y2="315.97" gradientTransform="matrix(0.32, -0.84, -0.84, -0.32, 365.53, 772.31)" xlink:href="#linear-gradient"/><linearGradient id="linear-gradient-8" x1="375.27" y1="15.06" x2="373.13" y2="15.55" gradientTransform="matrix(0.48, -0.88, -0.88, -0.48, 50.85, 706.87)" xlink:href="#linear-gradient"/><linearGradient id="linear-gradient-9" x1="366.68" y1="15.16" x2="364.7" y2="15.19" gradientTransform="matrix(0.48, -0.88, -0.88, -0.48, 55.7, 697.73)" xlink:href="#linear-gradient"/><linearGradient id="linear-gradient-10" x1="450.81" y1="203.51" x2="448.75" y2="204.19" gradientTransform="translate(-134.31 659.59) rotate(-69.2)" xlink:href="#linear-gradient"/><linearGradient id="linear-gradient-11" x1="440.55" y1="505.17" x2="439.5" y2="505.16" gradientTransform="translate(-410.61 540.57) rotate(-69.2)" xlink:href="#linear-gradient"/><linearGradient id="linear-gradient-12" x1="434.17" y1="503.56" x2="428.48" y2="504.06" gradientTransform="translate(-407.09 535.29) rotate(-69.2)" xlink:href="#linear-gradient"/><linearGradient id="linear-gradient-13" x1="440.41" y1="502.85" x2="439.21" y2="503.48" gradientTransform="translate(-410.61 540.57) rotate(-69.2)" xlink:href="#linear-gradient"/><linearGradient id="linear-gradient-14" x1="438.45" y1="502.56" x2="434.48" y2="507.09" gradientTransform="translate(-410.61 540.57) rotate(-69.2)" xlink:href="#linear-gradient"/><linearGradient id="linear-gradient-15" x1="409.45" y1="535.59" x2="402.11" y2="535.48" gradientTransform="translate(-360.3 481.78) rotate(-69.2) scale(0.89)" xlink:href="#linear-gradient"/><linearGradient id="linear-gradient-16" x1="422.8" y1="538.94" x2="416.78" y2="539.3" gradientTransform="translate(-368.54 493.42) rotate(-69.2) scale(0.89)" xlink:href="#linear-gradient"/><linearGradient id="linear-gradient-17" x1="347.74" y1="212.66" x2="345.6" y2="213.15" gradientTransform="translate(-89.8 653.43) rotate(-77.13)" xlink:href="#linear-gradient"/><linearGradient id="linear-gradient-18" x1="339.15" y1="212.75" x2="337.17" y2="212.79" gradientTransform="translate(-87.35 643.38) rotate(-77.13)" xlink:href="#linear-gradient"/><linearGradient id="linear-gradient-19" x1="606.63" y1="-156.48" x2="604.34" y2="-155.73" gradientTransform="matrix(0.35, 0.94, 0.94, -0.35, 310.48, -396.36)" xlink:href="#linear-gradient"/><linearGradient id="linear-gradient-20" x1="596.7" y1="145.3" x2="595.54" y2="145.3" gradientTransform="matrix(0.35, 0.94, 0.94, -0.35, 33.32, -279.37)" xlink:href="#linear-gradient"/><linearGradient id="linear-gradient-21" x1="590.3" y1="143.67" x2="583.95" y2="144.22" gradientTransform="matrix(0.35, 0.94, 0.94, -0.35, 36.8, -274.06)" xlink:href="#linear-gradient"/><linearGradient id="linear-gradient-22" x1="596.55" y1="142.72" x2="595.22" y2="143.42" gradientTransform="matrix(0.35, 0.94, 0.94, -0.35, 33.32, -279.37)" xlink:href="#linear-gradient"/><linearGradient id="linear-gradient-23" x1="594.37" y1="142.4" x2="589.94" y2="147.45" gradientTransform="matrix(0.35, 0.94, 0.94, -0.35, 33.32, -279.37)" xlink:href="#linear-gradient"/><linearGradient id="linear-gradient-24" x1="584" y1="132.67" x2="575.82" y2="132.55" gradientTransform="matrix(0.31, 0.84, 0.84, -0.31, 83.2, -220.21)" xlink:href="#linear-gradient"/><linearGradient id="linear-gradient-25" x1="597.11" y1="135.96" x2="590.39" y2="136.35" gradientTransform="matrix(0.31, 0.84, 0.84, -0.31, 75.04, -231.91)" xlink:href="#linear-gradient"/><linearGradient id="linear-gradient-26" x1="545.45" y1="-123.43" x2="543.07" y2="-122.89" gradientTransform="matrix(0.22, 0.98, 0.98, -0.22, 354.95, -389.88)" xlink:href="#linear-gradient"/><linearGradient id="linear-gradient-27" x1="537.07" y1="-123.31" x2="534.86" y2="-123.27" gradientTransform="matrix(0.22, 0.98, 0.98, -0.22, 357.32, -379.81)" xlink:href="#linear-gradient"/><linearGradient id="linear-gradient-28" x1="606.63" y1="361.49" x2="604.34" y2="362.25" gradientTransform="translate(525.43 -476.23) rotate(69.62)" xlink:href="#linear-gradient"/><linearGradient id="linear-gradient-29" x1="596.7" y1="663.28" x2="595.54" y2="663.27" gradientTransform="translate(811.75 -568.6) rotate(69.62)" xlink:href="#linear-gradient"/><linearGradient id="linear-gradient-30" x1="590.3" y1="661.65" x2="583.95" y2="662.2" gradientTransform="translate(812.58 -562.31) rotate(69.62)" xlink:href="#linear-gradient"/><linearGradient id="linear-gradient-31" x1="596.55" y1="660.7" x2="595.22" y2="661.39" gradientTransform="translate(811.75 -568.6) rotate(69.62)" xlink:href="#linear-gradient"/><linearGradient id="linear-gradient-32" x1="594.37" y1="660.37" x2="589.94" y2="665.42" gradientTransform="translate(811.75 -568.6) rotate(69.62)" xlink:href="#linear-gradient"/><linearGradient id="linear-gradient-33" x1="584" y1="712.5" x2="575.82" y2="712.38" gradientTransform="translate(812.59 -491.23) rotate(69.62) scale(0.89)" xlink:href="#linear-gradient"/><linearGradient id="linear-gradient-34" x1="597.11" y1="715.79" x2="590.39" y2="716.18" gradientTransform="translate(811.13 -505.41) rotate(69.62) scale(0.89)" xlink:href="#linear-gradient"/><linearGradient id="linear-gradient-35" x1="473.98" y1="389.59" x2="471.59" y2="390.13" gradientTransform="matrix(0.47, 0.88, -0.88, 0.47, 495.99, -442.28)" xlink:href="#linear-gradient"/><linearGradient id="linear-gradient-36" x1="465.59" y1="389.71" x2="463.39" y2="389.75" gradientTransform="matrix(0.47, 0.88, -0.88, 0.47, 500.76, -433.11)" xlink:href="#linear-gradient"/></defs><circle class="cls-1" cx="202.5" cy="202.5" r="196.5"/><rect class="cls-2" x="196.72" y="40.46" width="11.56" height="324.08"/><rect class="cls-2" x="282.42" y="107.6" width="11.56" height="324.08" transform="translate(-67.14 490.69) rotate(-90)"/><rect class="cls-3" x="213.39" y="287.48" width="3.95" height="110.86" transform="translate(221.95 -118.51) rotate(45.3)"/><rect class="cls-3" x="213.39" y="287.48" width="3.95" height="110.86" transform="translate(-264.6 183.48) rotate(-44.7)"/><g id="layer1"><g id="g3890"><path id="path3855" class="cls-4" d="M198.62,329.17a2.39,2.39,0,0,0-.12.57v.34l3.26.41-3.92,10.38c-.07.2-.15.4-.23.61-.16.4-.32.81-.49,1.22-.24.6-.5,1.21-.75,1.81l0,.1c-.52,1.22-1.07,2.45-1.62,3.66-.75,1.65-1.5,3.28-2.22,4.88-.53,1.18-1,2.33-1.5,3.45q-.48,1.15-.9,2.25c-.13.36-.26.72-.38,1.07s-.24.7-.35,1.07c-.05.18-.1.36-.16.55-.15.55-.3,1.12-.43,1.7h0c-.09.38-.18.76-.26,1.14s-.16.77-.23,1.15-.14.75-.2,1.12h0l-.09.55c-.09.54-.17,1.07-.24,1.57h0c-.05.34-.09.66-.13,1-.08.62-.14,1.19-.2,1.69-.08.74-.13,1.32-.15,1.66l0,.35-.12,1.25a.58.58,0,0,0,0,.26.22.22,0,0,0,0,.1,1.37,1.37,0,0,0,.22.38h0l.16.21h0l.2.21h0a13.9,13.9,0,0,0,2.73,1.88h0l.06,0,.81.44.06,0,1,.51h0l.52.26h0l.53.25h0l1.09.51h0c1.11.5,2.26,1,3.39,1.46h0c.75.31,1.5.6,2.22.88l.25.09.24.09c.72.28,1.47.55,2.24.82h0c1.15.4,2.34.8,3.51,1.16h0l1.15.35h0l.57.16h0l.56.15h0l1.08.28.06,0,.9.2.07,0h0a14.13,14.13,0,0,0,3.29.4h0l.29,0h0l.26,0h0a2.05,2.05,0,0,0,.42-.15l.08,0a.66.66,0,0,0,.19-.18l.75-1,.21-.28c.21-.27.55-.74,1-1.35.29-.4.62-.87,1-1.39l.55-.81h0c.28-.42.57-.87.86-1.34l.3-.46h0l.59-1,.59-1,.57-1h0c.28-.52.55-1,.8-1.56l.25-.52c.16-.35.31-.69.45-1s.28-.69.42-1.05c.28-.73.55-1.49.83-2.28.39-1.14.78-2.35,1.17-3.58.52-1.67,1-3.39,1.57-5.12.4-1.27.8-2.55,1.22-3.81l0-.11c.21-.62.42-1.24.64-1.85l.45-1.24c.08-.21.15-.41.23-.61l4-10.36,2.71,1.85.24-.24a2.15,2.15,0,0,0,.28-.51,1.55,1.55,0,0,0,.07-.23.19.19,0,0,1,0-.08.28.28,0,0,1,0-.09v-.18a1.24,1.24,0,0,0-.13-.5h0a.72.72,0,0,0-.14-.2l-2.22-2,3.49-9.12.16-.15a8.36,8.36,0,0,0,.58-.62c.09-.11.18-.21.26-.32a10.51,10.51,0,0,0,.75-1.17q.19-.34.36-.72c.06-.12.11-.24.16-.37s.21-.5.32-.76l.63-1.66a23.76,23.76,0,0,0,.81-2.53c.08-.32.16-.65.23-1a18.49,18.49,0,0,0,.29-1.87c0-.15,0-.31.05-.46,0-.45.05-.89.05-1.33,0-.14,0-.29,0-.43,0-.29,0-.57,0-.85s0-.28,0-.42-.08-.54-.13-.81,0-.27-.08-.4a13.65,13.65,0,0,0-.55-1.92,12.28,12.28,0,0,0-.65-1.43h0l-.18-.34h0a3.72,3.72,0,0,0-.19-.34h0a11.09,11.09,0,0,0-.65-1h0l-.24-.31h0c-.24-.32-.49-.62-.76-.92h0l-.27-.3h0a3.83,3.83,0,0,1-.28-.29h0c-.19-.19-.38-.38-.58-.56h0l-.31-.27h0l-.32-.27-.32-.26h0l-.33-.26h0l-.33-.25h0c-.34-.25-.69-.49-1.06-.73h0l-.38-.22h0a24.43,24.43,0,0,0-2.79-1.46h0l-.42-.19h0l-.87-.36h0l-.45-.17-.16-.05-.16-.07-.44-.17h0l-.88-.31h0l-.44-.14h0a25.38,25.38,0,0,0-3.06-.77h0l-.43-.08h0c-.43-.07-.85-.12-1.28-.16h0l-.42,0h0l-.42,0h0l-.42,0h-.82q-.42,0-.81,0h0l-.4,0h0l-.4,0h0a11.58,11.58,0,0,0-1.18.18h0l-.39.08h0c-.38.08-.76.19-1.13.3h0l-.37.13h0l-.37.13h0a13,13,0,0,0-1.43.64,14.41,14.41,0,0,0-1.69,1.06l-.32.25c-.22.17-.43.34-.64.53l-.31.28q-.3.28-.6.6l-.29.32c-.29.33-.57.67-.84,1-.1.12-.19.24-.28.37-.35.5-.69,1-1,1.6-.16.28-.32.57-.47.88a22.58,22.58,0,0,0-1.07,2.42c-.22.58-.44,1.13-.63,1.66l-.28.78-.12.39c-.08.26-.15.51-.21.77a10.43,10.43,0,0,0-.21,1.38c0,.13,0,.27,0,.41a8,8,0,0,0,0,.84c0,.08,0,.15,0,.22l-3.45,9.14-3,0a.69.69,0,0,0-.24.05h0a1.21,1.21,0,0,0-.43.29l-.11.13-.05.07-.05.07a1.5,1.5,0,0,0-.11.22Z" transform="translate(-85.69 -67.14)"/><path id="path2853" class="cls-5" d="M198.62,329.17a2.39,2.39,0,0,0-.12.57v.34l3.25.41-3.91,10.37c-2.45,6.49-6.22,13.47-8.15,19.05s-2.47,13.53-2.47,13.53l-.12,1.25c-.17,1.77,7.28,5.21,13,7.4l.29.11.28.11c5.76,2.19,13.61,4.55,14.66,3.12l.75-1s4.86-6.3,7.12-11.75,4.09-13.18,6.57-19.65l4-10.36,2.7,1.85.24-.24a2.15,2.15,0,0,0,.28-.51,1.55,1.55,0,0,0,.07-.23.19.19,0,0,1,0-.08.28.28,0,0,1,0-.09v-.18a1.41,1.41,0,0,0-.12-.5h0a.56.56,0,0,0-.14-.2l-2.21-2,3.49-9.13c1.75-1.61,2.33-3.44,3.21-5.77,4.21-11.07-1.27-18.32-10.82-21.89l-.2-.07-.19-.08c-9.52-3.67-18.43-1.89-22.63,9.18-.89,2.33-1.67,4.09-1.44,6.45l-3.45,9.14-3,0a1,1,0,0,0-.23.05h0a1.21,1.21,0,0,0-.43.29l-.11.13-.05.07-.05.07a1.5,1.5,0,0,0-.11.22Z" transform="translate(-85.69 -67.14)"/><path id="path3643" class="cls-6" d="M222,358a77.22,77.22,0,0,0-2.57,8c4.86-.6,5.61-7.19,9.11-16.08,1.61-4.11,3-7.38,4-10C229.16,343.16,225.14,349.84,222,358Z" transform="translate(-85.69 -67.14)"/><path id="path3658" class="cls-7" d="M222,358c-.1.27-.2.53-.29.8a5.44,5.44,0,0,0,3.68,0c.14-.39.29-.79.43-1.21a5.32,5.32,0,0,1-3.7.09Z" transform="translate(-85.69 -67.14)"/><path id="path3707" class="cls-8" d="M238.3,308.26l-.11.44c-.48,1.87,1,4,3.29,5l.58.25-.24-.58a14.4,14.4,0,0,0-3.2-4.78Z" transform="translate(-85.69 -67.14)"/><path id="path3715" class="cls-9" d="M232.72,325.69s.64-7.34.67-9.77-.13-9.45-.13-9.45,3.25,2.07,3.85,4.36c2.12,8.15-2.87,21-2.87,21" transform="translate(-85.69 -67.14)"/><path id="path3757" class="cls-10" d="M233.74,317.85l0,.44a1.35,1.35,0,0,1,.4-.08c1.12,0,2.09,1.82,2.12,3.37,0,.05,0,.17,0,.33l.11-1.25c-.16-1.71-1-3-2.1-3a1.35,1.35,0,0,0-.61.18Z" transform="translate(-85.69 -67.14)"/><path id="path3787" class="cls-11" d="M233.64,317l.05.45a1.1,1.1,0,0,1,.4-.08c1.12,0,2.09,1.82,2.12,3.36,0,0,0,.18,0,.34l.11-1.26c-.16-1.7-1-3-2.1-3a1.47,1.47,0,0,0-.61.17Z" transform="translate(-85.69 -67.14)"/><path id="path3752" class="cls-12" d="M233.72,316.44l.05.44a1.36,1.36,0,0,1,.39-.08c1.13,0,2.09,1.82,2.13,3.36,0,0,0,.18,0,.34l.11-1.26c-.16-1.7-1.05-3-2.1-3a1.31,1.31,0,0,0-.61.18Z" transform="translate(-85.69 -67.14)"/><path id="path3735" class="cls-13" d="M233.89,314.9l0,.57a1.51,1.51,0,0,1,.52,0c1.43.25,2.19,2.83,1.84,4.79-.05.3-.2,2.67-.28,2.95l.34.13.3-3.82c.37-2.36-.45-4.45-1.86-4.69a1.64,1.64,0,0,0-.82.07Z" transform="translate(-85.69 -67.14)"/><path id="path3783" class="cls-14" d="M233.89,314.9l0,.57a1.51,1.51,0,0,1,.52,0c1.43.25,2.19,2.83,1.84,4.79-.05.3-.2,2.67-.28,2.95l.34.13.3-3.82c.37-2.36-.45-4.45-1.86-4.69a1.64,1.64,0,0,0-.82.07Z" transform="translate(-85.69 -67.14)"/><path id="path3799" class="cls-15" d="M233.72,319.06l0,.4a1.15,1.15,0,0,1,.36-.07c1,0,1.86,1.62,1.89,3,0,.05,0,.16,0,.3l.1-1.12c-.14-1.52-.94-2.69-1.88-2.66a1,1,0,0,0-.54.15Z" transform="translate(-85.69 -67.14)"/><path id="path3803" class="cls-16" d="M233.58,320.32l0,.4a1,1,0,0,1,.35-.07c1,0,1.86,1.62,1.9,3,0,.05,0,.16,0,.3l.1-1.12c-.14-1.52-.94-2.69-1.88-2.67a1.17,1.17,0,0,0-.54.16Z" transform="translate(-85.69 -67.14)"/><path id="rect3861" class="cls-17" d="M216,371.62c.09-.75.37-1.33,1.1-1.46l1.41.77a1.33,1.33,0,0,1-.64,1.72l-1.87-1Z" transform="translate(-85.69 -67.14)"/><path id="path3864" class="cls-18" d="M216.87,370c.16-.72.43-1.28,1-1.39l1.34.73a1.55,1.55,0,0,1-.6,1.64l-1.79-1Z" transform="translate(-85.69 -67.14)"/><path id="path4025" class="cls-19" d="M221.82,358a76,76,0,0,0-2.58,8.06l-.09.32.33,0a5.08,5.08,0,0,0,3.11-1.58,11.81,11.81,0,0,0,2.13-3.48c1.24-2.86,2.3-6.73,4.05-11.16,1.61-4.11,3-7.38,4-10l-.36-.25C229,343,224.94,349.74,221.82,358Zm.41.16c2.88-7.57,6.54-13.84,9.75-17.22-1,2.47-2.19,5.37-3.63,9-1.75,4.47-2.82,8.34-4,11.15a11.23,11.23,0,0,1-2,3.35,4.54,4.54,0,0,1-2.51,1.38A78.72,78.72,0,0,1,222.23,358.12Z" transform="translate(-85.69 -67.14)"/><path id="rect2864" class="cls-20" d="M197,361.84l-1.42,6.85c-.49,2.39,2.51,5.6,7.1,7.54,4.72,1.6,9.1,1.19,10.32-.92l3.49-6.07a2.13,2.13,0,0,0-1.24-2.75l-15.5-5.89a2.13,2.13,0,0,0-2.75,1.24Z" transform="translate(-85.69 -67.14)"/><path id="path3703" class="cls-20" d="M207.79,324.91a4,4,0,0,0-.19.76h0l-1,5.7c0,1.68.18,3.11,1.65,3.67l17.66,6.7c1.47.56,2.56-.38,3.67-1.64l3-4.92h0a3.32,3.32,0,0,0,.36-.7c1.43-3.77-2.17-8.64-10-11.62s-13.75-1.72-15.19,2.05Z" transform="translate(-85.69 -67.14)"/><path id="path4157" class="cls-6" d="M200.33,349.8a77.35,77.35,0,0,1-3.41,7.72c-3.24-3.67.58-9.1,3.87-18.07,1.52-4.15,2.67-7.5,3.64-10.17C204.88,333.93,203.45,341.6,200.33,349.8Z" transform="translate(-85.69 -67.14)"/><path id="path4159" class="cls-7" d="M200.33,349.8l-.3.79a5.52,5.52,0,0,1-2.77-2.43c.15-.39.32-.79.48-1.19a5.3,5.3,0,0,0,2.71,2.52Z" transform="translate(-85.69 -67.14)"/><path id="path4161" class="cls-8" d="M221.22,301.77l-.21.41c-.89,1.71-3.35,2.31-5.77,1.54l-.61-.19.57-.29a14.44,14.44,0,0,1,5.56-1.44Z" transform="translate(-85.69 -67.14)"/><path id="path4163" class="cls-9" d="M213.82,318.5s4.39-5.9,6-7.74,6.37-7,6.37-7-3.8-.61-5.77.7c-7,4.69-11.82,17.63-11.82,17.63" transform="translate(-85.69 -67.14)"/><path id="path4165" class="cls-21" d="M218.26,312l-.33.29a1.54,1.54,0,0,0-.25-.32c-.82-.76-2.76,0-3.82,1.11l-.24.23.75-1c1.25-1.17,2.78-1.55,3.55-.84a1.28,1.28,0,0,1,.34.54Z" transform="translate(-85.69 -67.14)"/><path id="path4167" class="cls-22" d="M218.9,311.4l-.33.29a1.54,1.54,0,0,0-.25-.32c-.82-.77-2.76,0-3.82,1.11l-.24.23.75-1c1.25-1.17,2.79-1.56,3.55-.84a1.28,1.28,0,0,1,.34.54Z" transform="translate(-85.69 -67.14)"/><path id="path4169" class="cls-23" d="M219.22,310.93l-.34.29a1.22,1.22,0,0,0-.24-.32c-.82-.77-2.77,0-3.82,1.11l-.25.23.75-1c1.25-1.17,2.79-1.56,3.55-.84a1.4,1.4,0,0,1,.35.54Z" transform="translate(-85.69 -67.14)"/><path id="path4171" class="cls-24" d="M220.1,309.66l-.34.45a1.8,1.8,0,0,0-.39-.34c-1.24-.76-3.51.66-4.56,2.36-.16.26-1.62,2.13-1.75,2.39l-.34-.13,2.32-3.05c1.28-2,3.28-3,4.5-2.28a1.7,1.7,0,0,1,.56.6Z" transform="translate(-85.69 -67.14)"/><path id="path4173" class="cls-25" d="M220.1,309.66l-.34.45a1.8,1.8,0,0,0-.39-.34c-1.24-.76-3.51.66-4.56,2.36-.16.26-1.62,2.13-1.75,2.39l-.34-.13,2.32-3.05c1.28-2,3.28-3,4.5-2.28a1.7,1.7,0,0,1,.56.6Z" transform="translate(-85.69 -67.14)"/><path id="path4175" class="cls-26" d="M217.47,312.89l-.3.26a1.14,1.14,0,0,0-.21-.28c-.74-.69-2.48,0-3.42,1a2.45,2.45,0,0,1-.22.21l.68-.9c1.11-1.05,2.48-1.39,3.17-.75a1.09,1.09,0,0,1,.3.48Z" transform="translate(-85.69 -67.14)"/><path id="path4177" class="cls-27" d="M216.74,313.92l-.3.27a1.23,1.23,0,0,0-.22-.29c-.73-.68-2.47,0-3.41,1l-.22.2.67-.9c1.12-1,2.49-1.39,3.17-.75a1.24,1.24,0,0,1,.31.48Z" transform="translate(-85.69 -67.14)"/><path id="path4179" class="cls-28" d="M195.85,364a1.43,1.43,0,0,0,.15-1.83l-1.57-.35a1.31,1.31,0,0,0-.66,1.7l2.08.48Z" transform="translate(-85.69 -67.14)"/><path id="path4181" class="cls-29" d="M196.22,362.19c.36-.64.53-1.24.14-1.74l-1.49-.34c-.45.45-.85.92-.63,1.63l2,.45Z" transform="translate(-85.69 -67.14)"/><path id="path4183" class="cls-19" d="M200.54,349.88a80.13,80.13,0,0,1-3.42,7.74l-.15.29-.22-.25a5,5,0,0,1-1.28-3.24,11.84,11.84,0,0,1,.73-4c1-3,2.74-6.56,4.38-11,1.52-4.14,2.67-7.5,3.64-10.17l.43.06C205.1,334,203.67,341.65,200.54,349.88Zm-.42-.16c2.88-7.57,4.31-14.69,4.15-19.35-.9,2.51-1.92,5.47-3.27,9.15-1.65,4.5-3.43,8.11-4.38,11a11.14,11.14,0,0,0-.7,3.86,4.58,4.58,0,0,0,1,2.7A77.07,77.07,0,0,0,200.12,349.72Z" transform="translate(-85.69 -67.14)"/></g></g><circle class="cls-30" cx="281.01" cy="126.02" r="45.83"/><path id="path3855-2" data-name="path3855" class="cls-4" d="M398.73,189.83a2.29,2.29,0,0,0-.31-.57l-.26-.27-3,2-4.33-11.58c-.09-.23-.17-.45-.25-.68-.17-.46-.33-.92-.49-1.39-.24-.68-.47-1.38-.7-2.07l0-.11c-.46-1.41-.9-2.84-1.33-4.27-.58-1.93-1.15-3.86-1.72-5.72-.42-1.38-.84-2.72-1.27-4-.3-.88-.6-1.73-.91-2.55-.15-.4-.3-.79-.46-1.17s-.32-.77-.49-1.15l-.27-.59c-.28-.58-.57-1.16-.88-1.74h0l-.63-1.15c-.21-.38-.43-.76-.65-1.13s-.43-.73-.65-1.08h0l-.33-.52c-.32-.52-.64-1-1-1.5h0l-.6-.91c-.39-.58-.76-1.1-1.08-1.56-.48-.68-.86-1.2-1.09-1.51l-.23-.31-.82-1.14a.8.8,0,0,0-.21-.2l-.1-.06a1.77,1.77,0,0,0-.46-.16h0l-.29-.05h0l-.32,0h0a15.35,15.35,0,0,0-3.67.42h-.07l-1,.23h-.07l-1.21.31h0l-.62.16h0l-.62.18h0l-1.28.37h0c-1.3.39-2.63.82-3.92,1.26h0c-.86.29-1.7.59-2.51.89l-.27.11-.28.1c-.8.3-1.64.62-2.49,1h0c-1.27.5-2.56,1-3.8,1.6h0l-1.22.55h0l-.59.28h0l-.58.28h0l-1.11.55-.06,0c-.32.16-.62.33-.91.49l-.07,0h0a16,16,0,0,0-3.05,2.08h0l-.23.24h0a1.3,1.3,0,0,0-.18.23h0a2.11,2.11,0,0,0-.25.42l0,.1a.74.74,0,0,0,0,.29l.12,1.4,0,.4c0,.38.08,1,.16,1.85.05.55.12,1.19.21,1.88,0,.35.08.71.13,1.08h0c.07.56.15,1.15.25,1.75,0,.2.06.4.1.61h0c.06.41.13.83.21,1.25s.16.85.25,1.28.17.85.27,1.28h0c.15.64.3,1.28.47,1.9l.18.61c.12.41.24.81.38,1.2s.27.79.41,1.19c.3.82.63,1.66,1,2.52.51,1.25,1.07,2.54,1.65,3.86.79,1.78,1.62,3.61,2.44,5.45.6,1.37,1.2,2.74,1.78,4.1,0,0,0,.07,0,.11.29.68.56,1.35.83,2,.18.46.36.92.53,1.38.09.22.18.45.26.68l4.28,11.6-3.64.43v.38a2.43,2.43,0,0,0,.13.63,1.34,1.34,0,0,0,.12.24.22.22,0,0,0,.05.08l.06.08c0,.05.08.11.12.15a1.53,1.53,0,0,0,.48.33h0a.62.62,0,0,0,.26.06l3.33,0L364,217a1.94,1.94,0,0,0,0,.24,7.66,7.66,0,0,0,0,.95c0,.15,0,.3,0,.45a9.68,9.68,0,0,0,.22,1.54c.07.29.14.58.23.86s.09.29.13.44.19.57.3.87c.21.59.45,1.2.69,1.86a28.3,28.3,0,0,0,1.17,2.71c.17.34.35.66.52,1,.36.64.74,1.23,1.13,1.79l.3.42c.3.4.61.78.93,1.15l.33.36c.21.23.44.46.66.67l.35.32c.23.21.46.41.7.59l.36.28a15.58,15.58,0,0,0,1.87,1.2,16.24,16.24,0,0,0,1.59.73h0l.4.15h0l.41.14h0c.42.13.84.25,1.26.35h0l.42.09h0c.43.09.87.16,1.31.21h0l.45,0h0l.45,0h0l.9,0H382l.47,0h0l.47,0h0l.47,0h0c.47,0,.95-.1,1.42-.17h0l.47-.08h0a27.62,27.62,0,0,0,3.41-.82h0l.5-.15h0l1-.34h0l.5-.19.18-.07.18-.06.5-.19h0c.33-.12.65-.25,1-.39h0l.48-.2h0a29.59,29.59,0,0,0,3.13-1.6h0l.42-.25h0c.41-.25.81-.52,1.2-.79h0l.38-.28h0l.37-.29h0c.13-.09.25-.19.37-.29l.35-.29h0l.35-.3h0l.66-.62h0c.11-.1.21-.21.31-.32h0l.3-.32h0c.3-.33.59-.67.86-1h0l.26-.35h0a11.41,11.41,0,0,0,.72-1.09h0l.22-.37h0l.21-.38h0a14.34,14.34,0,0,0,.73-1.59,14.61,14.61,0,0,0,.64-2.13l.09-.44a9.07,9.07,0,0,0,.14-.91l.06-.47c0-.31,0-.62.06-.94,0-.16,0-.32,0-.48,0-.49,0-1-.05-1.49,0-.16,0-.33,0-.5-.07-.69-.17-1.38-.31-2.1-.08-.35-.16-.72-.25-1.08a29.19,29.19,0,0,0-.88-2.82c-.25-.65-.47-1.27-.69-1.86-.12-.29-.23-.58-.35-.86l-.18-.41c-.12-.27-.25-.54-.39-.8a12,12,0,0,0-.83-1.31l-.29-.36a6.88,6.88,0,0,0-.64-.7l-.18-.16L396,193.46l2.49-2.21a1.16,1.16,0,0,0,.16-.21h0a1.54,1.54,0,0,0,.14-.56,1.33,1.33,0,0,0,0-.2.34.34,0,0,0,0-.1.28.28,0,0,0,0-.09,2,2,0,0,0-.07-.26Z" transform="translate(-85.69 -67.14)"/><path id="path2853-2" data-name="path2853" class="cls-31" d="M398.73,189.83a2.29,2.29,0,0,0-.31-.57l-.26-.27-3,2-4.33-11.58c-2.71-7.24-4.68-15.87-7.16-22s-7.85-13.17-7.85-13.17l-.82-1.14c-1.16-1.6-9.93,1-16.38,3.37l-.31.12-.32.11c-6.44,2.4-14.77,6.18-14.6,8.15l.12,1.4s.54,8.86,2.65,15.09,6.25,14.06,8.92,21.31l4.28,11.6-3.63.43v.38a2.43,2.43,0,0,0,.13.63,1.34,1.34,0,0,0,.12.24.22.22,0,0,0,.05.08l.06.08c0,.05.08.11.12.15a1.34,1.34,0,0,0,.47.33h0a.75.75,0,0,0,.26.05l3.32,0L364,217c-.28,2.63.58,4.6,1.55,7.21,4.6,12.37,14.51,14.44,25.15,10.42l.22-.09.22-.08c10.68-3.9,16.85-11.94,12.25-24.31-1-2.61-1.6-4.66-3.54-6.47L396,193.46l2.48-2.21a.83.83,0,0,0,.16-.21h0a1.28,1.28,0,0,0,.14-.55,1.33,1.33,0,0,0,0-.2.34.34,0,0,0,0-.1.28.28,0,0,0,0-.09,2,2,0,0,0-.07-.26Z" transform="translate(-85.69 -67.14)"/><path id="path3643-2" data-name="path3643" class="cls-6" d="M357.9,182.79a85,85,0,0,0-3.74-8.63c-3.64,4.06.57,10.14,4.16,20.17,1.66,4.64,2.92,8.39,4,11.37C362.83,200.52,361.31,192,357.9,182.79Z" transform="translate(-85.69 -67.14)"/><path id="path3658-2" data-name="path3658" class="cls-7" d="M357.9,182.79c-.11-.3-.22-.6-.34-.89a6,6,0,0,0-3.1,2.7c.17.43.34.87.53,1.33a5.88,5.88,0,0,1,3-2.8Z" transform="translate(-85.69 -67.14)"/><path id="path3707-2" data-name="path3707" class="cls-8" d="M380.79,236.5l-.23-.45c-1-1.91-3.71-2.6-6.42-1.77l-.68.21.63.33a16.21,16.21,0,0,0,6.19,1.65Z" transform="translate(-85.69 -67.14)"/><path id="path3715-2" data-name="path3715" class="cls-9" d="M372.67,217.79s4.85,6.62,6.61,8.69,7.05,7.83,7.05,7.83-4.25.65-6.43-.84c-7.76-5.27-13-19.75-13-19.75" transform="translate(-85.69 -67.14)"/><path id="path3757-2" data-name="path3757" class="cls-32" d="M377.58,225.11l-.37-.33a1.6,1.6,0,0,1-.28.35c-.92.85-3.08,0-4.25-1.26l-.27-.26.83,1.14c1.38,1.31,3.09,1.75,3.95,1a1.42,1.42,0,0,0,.39-.6Z" transform="translate(-85.69 -67.14)"/><path id="path3787-2" data-name="path3787" class="cls-33" d="M378.29,225.76l-.37-.34a1.45,1.45,0,0,1-.28.36c-.92.85-3.08,0-4.25-1.26a3.73,3.73,0,0,0-.27-.26l.83,1.13c1.38,1.31,3.09,1.75,3.95,1a1.39,1.39,0,0,0,.39-.59Z" transform="translate(-85.69 -67.14)"/><path id="path3752-2" data-name="path3752" class="cls-34" d="M378.63,226.28l-.37-.33a1.31,1.31,0,0,1-.27.35c-.92.85-3.09,0-4.25-1.26l-.27-.26.83,1.13c1.38,1.32,3.09,1.76,3.95,1a1.5,1.5,0,0,0,.38-.6Z" transform="translate(-85.69 -67.14)"/><path id="path3735-2" data-name="path3735" class="cls-35" d="M379.61,227.7l-.38-.51a1.77,1.77,0,0,1-.44.38c-1.38.84-3.91-.76-5.06-2.67-.18-.29-1.79-2.38-1.93-2.68l-.38.14,2.56,3.43c1.42,2.25,3.63,3.4,5,2.57a1.82,1.82,0,0,0,.63-.66Z" transform="translate(-85.69 -67.14)"/><path id="path3783-2" data-name="path3783" class="cls-36" d="M379.61,227.7l-.38-.51a1.77,1.77,0,0,1-.44.38c-1.38.84-3.91-.76-5.06-2.67-.18-.29-1.79-2.38-1.93-2.68l-.38.14,2.56,3.43c1.42,2.25,3.63,3.4,5,2.57a1.82,1.82,0,0,0,.63-.66Z" transform="translate(-85.69 -67.14)"/><path id="path3799-2" data-name="path3799" class="cls-37" d="M376.71,224.08l-.34-.3a1.08,1.08,0,0,1-.24.32c-.83.76-2.76,0-3.8-1.13l-.24-.23.74,1c1.24,1.18,2.76,1.57,3.53.86a1.3,1.3,0,0,0,.35-.53Z" transform="translate(-85.69 -67.14)"/><path id="path3803-2" data-name="path3803" class="cls-38" d="M375.9,222.92l-.33-.3a1.31,1.31,0,0,1-.25.32c-.82.76-2.76,0-3.8-1.13l-.24-.23.74,1c1.24,1.18,2.76,1.57,3.53.86a1.2,1.2,0,0,0,.35-.53Z" transform="translate(-85.69 -67.14)"/><path id="rect3861-2" data-name="rect3861" class="cls-39" d="M353,166.94a1.59,1.59,0,0,1,.14,2l-1.75.39a1.48,1.48,0,0,1-.72-1.91l2.33-.52Z" transform="translate(-85.69 -67.14)"/><path id="path3864-2" data-name="path3864" class="cls-40" d="M353.41,168.94c.4.71.58,1.39.14,1.94l-1.66.36a1.72,1.72,0,0,1-.69-1.81l2.21-.49Z" transform="translate(-85.69 -67.14)"/><path id="path4025-2" data-name="path4025" class="cls-19" d="M358.13,182.7a86.6,86.6,0,0,0-3.75-8.66l-.17-.32L354,174a5.65,5.65,0,0,0-1.45,3.61,13.06,13.06,0,0,0,.77,4.48c1.06,3.31,3,7.34,4.8,12.34,1.66,4.63,2.91,8.38,4,11.37l.48-.06C363.09,200.47,361.55,191.9,358.13,182.7Zm-.46.17c3.14,8.47,4.67,16.42,4.46,21.61-1-2.8-2.1-6.11-3.58-10.23-1.8-5-3.75-9.06-4.79-12.32a12.58,12.58,0,0,1-.75-4.31,5.1,5.1,0,0,1,1.1-3A87.12,87.12,0,0,1,357.67,182.87Z" transform="translate(-85.69 -67.14)"/><path id="rect2864-2" data-name="rect2864" class="cls-20" d="M376.09,161.24l-3.84-6.79c-1.34-2.37-6.22-2.86-11.5-1.11-5.13,2.12-8.51,5.68-8,8.35l1.52,7.65a2.37,2.37,0,0,0,3.06,1.4l17.33-6.44a2.37,2.37,0,0,0,1.4-3.06Z" transform="translate(-85.69 -67.14)"/><path id="path3703-2" data-name="path3703" class="cls-20" d="M394.16,200.14a3.87,3.87,0,0,0-.39-.79h0l-3.35-5.5c-1.22-1.42-2.43-2.48-4.07-1.87l-19.75,7.33c-1.64.62-1.86,2.21-1.86,4.08l1.06,6.35h0a4,4,0,0,0,.21.84c1.57,4.22,8.17,5.66,16.92,2.42s12.8-8.66,11.23-12.87Z" transform="translate(-85.69 -67.14)"/><path id="path4157-2" data-name="path4157" class="cls-6" d="M382.15,173.78a85.32,85.32,0,0,1-2.8-9c5.41.7,6.19,8,10,18,1.77,4.59,3.26,8.25,4.41,11.2C390,190.43,385.55,183,382.15,173.78Z" transform="translate(-85.69 -67.14)"/><path id="path4159-2" data-name="path4159" class="cls-7" d="M382.15,173.78l-.33-.89a6.06,6.06,0,0,1,4.11,0c.16.44.31.89.47,1.35a6,6,0,0,0-4.12-.13C382.23,174,382.19,173.89,382.15,173.78Z" transform="translate(-85.69 -67.14)"/><path id="path4161-2" data-name="path4161" class="cls-8" d="M399.89,229.41l-.12-.5c-.51-2.08,1.11-4.39,3.7-5.53l.65-.28-.27.66a15.89,15.89,0,0,1-3.6,5.29Z" transform="translate(-85.69 -67.14)"/><path id="path4163-2" data-name="path4163" class="cls-9" d="M393.81,209.94s.66,8.18.67,10.89-.22,10.53-.22,10.53,3.64-2.28,4.32-4.83c2.43-9.06-3-23.47-3-23.47" transform="translate(-85.69 -67.14)"/><path id="path4165-2" data-name="path4165" class="cls-41" d="M394.88,218.68l.06-.49a1.72,1.72,0,0,0,.44.09c1.26,0,2.35-2,2.4-3.73a2.66,2.66,0,0,1,0-.38l.11,1.4c-.19,1.9-1.2,3.35-2.37,3.31a1.28,1.28,0,0,1-.68-.2Z" transform="translate(-85.69 -67.14)"/><path id="path4167-2" data-name="path4167" class="cls-42" d="M394.76,219.64l.07-.5a1.56,1.56,0,0,0,.44.09c1.25,0,2.34-2,2.39-3.73,0-.06,0-.2,0-.37l.11,1.39c-.19,1.9-1.2,3.35-2.37,3.31a1.37,1.37,0,0,1-.68-.19Z" transform="translate(-85.69 -67.14)"/><path id="path4169-2" data-name="path4169" class="cls-43" d="M394.84,220.26l.07-.49a1.32,1.32,0,0,0,.44.08c1.25,0,2.34-2,2.39-3.73,0-.05,0-.19,0-.37l.11,1.4c-.19,1.9-1.2,3.35-2.36,3.31a1.57,1.57,0,0,1-.69-.2Z" transform="translate(-85.69 -67.14)"/><path id="path4171-2" data-name="path4171" class="cls-44" d="M395,222l0-.64a1.88,1.88,0,0,0,.58,0c1.59-.27,2.46-3.13,2.09-5.33-.06-.34-.2-3-.29-3.29l.38-.14.3,4.27c.4,2.63-.53,5-2.11,5.21A1.89,1.89,0,0,1,395,222Z" transform="translate(-85.69 -67.14)"/><path id="path4173-2" data-name="path4173" class="cls-45" d="M395,222l0-.64a1.88,1.88,0,0,0,.58,0c1.59-.27,2.46-3.13,2.09-5.33-.06-.34-.2-3-.29-3.29l.38-.14.3,4.27c.4,2.63-.53,5-2.11,5.21A1.89,1.89,0,0,1,395,222Z" transform="translate(-85.69 -67.14)"/><path id="path4175-2" data-name="path4175" class="cls-46" d="M394.87,217.33l.05-.44a1.35,1.35,0,0,0,.4.08c1.12,0,2.09-1.79,2.14-3.33,0,0,0-.18,0-.34l.1,1.25c-.17,1.7-1.07,3-2.12,3a1.31,1.31,0,0,1-.6-.18Z" transform="translate(-85.69 -67.14)"/><path id="path4177-2" data-name="path4177" class="cls-47" d="M394.72,215.93l.06-.44a1.34,1.34,0,0,0,.39.07c1.12,0,2.1-1.79,2.14-3.33,0,0,0-.18,0-.33l.1,1.25c-.17,1.69-1.07,3-2.11,2.95a1.33,1.33,0,0,1-.61-.17Z" transform="translate(-85.69 -67.14)"/><path id="path4179-2" data-name="path4179" class="cls-48" d="M375.5,158.59c.1.84.4,1.49,1.22,1.64l1.57-.85a1.48,1.48,0,0,0-.69-1.92l-2.1,1.13Z" transform="translate(-85.69 -67.14)"/><path id="path4181-2" data-name="path4181" class="cls-49" d="M376.5,160.36c.17.8.47,1.43,1.16,1.56l1.5-.81a1.72,1.72,0,0,0-.66-1.83l-2,1.08Z" transform="translate(-85.69 -67.14)"/><path id="path4183-2" data-name="path4183" class="cls-19" d="M381.92,173.86a85.17,85.17,0,0,1-2.82-9l-.08-.36.36.05a5.63,5.63,0,0,1,3.46,1.79,13.2,13.2,0,0,1,2.34,3.89c1.36,3.2,2.51,7.52,4.42,12.48,1.77,4.59,3.26,8.25,4.41,11.2l-.4.27C389.76,190.56,385.33,183.06,381.92,173.86Zm.46-.17c3.15,8.47,7.18,15.49,10.73,19.28-1.09-2.76-2.4-6-4-10.08-1.92-5-3.08-9.32-4.42-12.46a12.76,12.76,0,0,0-2.24-3.76,5.15,5.15,0,0,0-2.79-1.55A85.17,85.17,0,0,0,382.38,173.69Z" transform="translate(-85.69 -67.14)"/></svg>