<?xml version="1.0" standalone="no"?>
<!DOCTYPE svg PUBLIC "-//W3C//DTD SVG 20010904//EN"
 "http://www.w3.org/TR/2001/REC-SVG-20010904/DTD/svg10.dtd">
<svg version="1.0" xmlns="http://www.w3.org/2000/svg"
 width="360.000000pt" height="360.000000pt" viewBox="0 0 360.000000 360.000000"
 preserveAspectRatio="xMidYMid meet">

<g transform="translate(0.000000,360.000000) scale(0.100000,-0.100000)"
fill="#000000" stroke="none">
<path d="M450 1795 l0 -1345 1015 0 1015 0 0 25 0 25 -985 0 -985 0 0 1295 0
1295 290 0 290 0 0 -100 0 -100 -190 0 -190 0 0 -440 0 -440 25 0 25 0 0 410
0 410 165 0 165 0 0 -110 0 -110 -50 0 c-49 0 -50 -1 -50 -30 l0 -30 320 0
320 0 0 -110 0 -110 -180 0 -180 0 0 -140 0 -140 25 0 25 0 0 110 0 110 155 0
155 0 0 -85 0 -85 -70 0 c-68 0 -70 -1 -70 -25 l0 -25 280 0 280 0 0 -255 0
-255 -280 0 -280 0 0 -25 0 -25 310 0 310 0 0 305 0 305 -211 2 -211 3 -5 223
-4 222 440 0 441 0 0 -755 0 -755 -760 0 -760 0 0 135 0 135 -25 0 -25 0 0
-165 0 -165 815 0 815 0 0 815 0 815 -735 0 -735 0 0 265 0 265 -350 0 -350 0
0 -1345z"/>
<path d="M1380 2985 l0 -155 730 0 730 0 0 -1040 0 -1040 -1037 2 -1038 3 -3
408 -2 407 255 0 255 0 0 -155 0 -155 533 2 532 3 0 530 0 530 -192 3 -193 2
0 -30 0 -30 165 0 165 0 0 -475 0 -475 -480 0 -480 0 0 210 0 209 113 3 112 3
3 28 3 27 -140 0 -141 0 0 -85 0 -85 -115 0 -115 0 0 335 0 335 -25 0 -25 0 0
-335 0 -335 -115 0 -115 0 0 65 c0 63 -1 65 -25 65 l-25 0 0 -530 0 -530 1095
0 1095 0 0 1095 0 1095 -730 0 -730 0 0 100 0 100 825 0 825 0 2 -1278 c2
-703 2 -1286 0 -1295 -3 -15 -23 -17 -188 -17 l-184 0 0 -25 0 -25 215 0 215
0 0 1345 0 1345 -885 0 -885 0 0 -155z"/>
</g>
</svg>
