<?xml version="1.0" standalone="no"?>
<!DOCTYPE svg PUBLIC "-//W3C//DTD SVG 20010904//EN"
 "http://www.w3.org/TR/2001/REC-SVG-20010904/DTD/svg10.dtd">
<svg version="1.0" xmlns="http://www.w3.org/2000/svg"
 width="900.000000pt" height="720.000000pt" viewBox="0 0 900.000000 720.000000"
 preserveAspectRatio="xMidYMid meet">

<g transform="translate(0.000000,720.000000) scale(0.100000,-0.100000)"
fill="#000000" stroke="none">
<path d="M3938 6603 c-41 -7 -53 -29 -53 -102 0 -92 23 -132 162 -286 147
-163 183 -208 183 -231 0 -11 -49 -87 -108 -170 -59 -83 -187 -268 -285 -412
-98 -144 -243 -350 -322 -459 -147 -201 -205 -295 -205 -330 0 -22 -31 -69
-293 -448 -238 -343 -343 -487 -425 -583 -66 -79 -92 -116 -177 -257 -26 -44
-107 -163 -180 -265 -151 -212 -196 -279 -337 -497 -179 -280 -243 -385 -341
-559 -182 -326 -289 -509 -328 -562 -72 -96 -143 -140 -250 -157 -20 -3 -44
-14 -53 -24 -32 -35 -49 -271 -25 -339 13 -39 51 -64 96 -64 42 0 88 35 185
138 l67 71 273 7 c572 14 1200 46 1317 66 64 12 361 32 871 60 411 23 748 50
995 80 88 11 243 24 345 30 470 26 540 31 610 40 41 5 176 17 300 25 223 16
356 31 540 60 52 8 271 28 485 45 384 30 451 36 672 61 l111 13 39 -26 c21
-14 85 -69 141 -122 101 -94 168 -146 205 -159 10 -4 32 -1 50 7 94 40 108
152 27 216 -22 17 -40 36 -40 42 0 5 18 30 39 56 69 82 98 172 71 223 -8 14
-21 19 -49 19 -21 0 -60 7 -87 15 -72 22 -101 19 -144 -15 -21 -17 -43 -30
-50 -30 -38 0 -184 139 -356 340 -125 145 -388 475 -479 600 -137 190 -174
237 -270 345 -54 61 -186 216 -293 345 -108 129 -252 302 -320 384 -142 170
-247 311 -383 510 -102 151 -258 349 -429 546 -60 69 -161 193 -226 275 -64
83 -145 182 -178 220 -34 39 -95 111 -135 160 -40 50 -133 149 -206 220 -155
152 -185 203 -193 322 -4 62 -1 77 18 108 20 32 22 46 18 115 -3 52 -11 87
-22 105 -16 25 -22 27 -63 22 -53 -6 -89 -29 -122 -80 -13 -20 -30 -37 -37
-37 -12 0 -90 117 -154 233 -18 32 -42 64 -54 72 -23 15 -106 25 -148 18z
m531 -880 c147 -150 401 -444 401 -464 0 -11 22 -44 48 -72 27 -29 84 -97 128
-152 43 -55 175 -214 294 -354 287 -338 287 -339 480 -626 93 -137 199 -286
237 -330 38 -44 185 -219 328 -390 143 -170 338 -404 435 -520 97 -115 208
-256 247 -311 40 -56 141 -194 225 -306 84 -113 180 -242 213 -288 33 -46 70
-89 82 -98 14 -8 23 -24 23 -39 0 -24 -2 -25 -41 -19 -27 4 -59 1 -88 -8 -70
-22 -215 -43 -551 -76 -168 -17 -404 -44 -525 -60 -477 -63 -866 -100 -1475
-140 -173 -12 -448 -34 -610 -50 -501 -50 -709 -65 -1600 -115 -151 -9 -345
-20 -430 -25 -243 -16 -876 -18 -891 -3 -9 9 -6 22 12 55 121 221 184 338 261
483 106 199 309 541 400 672 153 224 221 322 378 543 92 129 184 267 205 305
40 73 114 173 160 215 15 14 36 44 46 67 10 24 54 89 97 145 106 138 275 382
510 738 108 162 238 354 291 425 163 224 187 259 256 376 163 273 325 489 368
489 12 0 47 -27 86 -67z"/>
</g>
</svg>
