<?xml version="1.0" standalone="no"?>
<!DOCTYPE svg PUBLIC "-//W3C//DTD SVG 20010904//EN"
 "http://www.w3.org/TR/2001/REC-SVG-20010904/DTD/svg10.dtd">
<svg version="1.0" xmlns="http://www.w3.org/2000/svg"
 width="271.000000pt" height="186.000000pt" viewBox="0 0 271.000000 186.000000"
 preserveAspectRatio="xMidYMid meet">

<g transform="translate(0.000000,186.000000) scale(0.100000,-0.100000)"
fill="#000000" stroke="none">
<path d="M1028 1513 c-42 -114 -171 -464 -287 -777 -116 -313 -210 -570 -208
-571 11 -6 91 -34 93 -32 1 1 52 136 113 301 60 164 112 301 115 303 3 3 22
-9 43 -26 85 -68 186 -81 438 -57 204 19 278 12 367 -36 56 -30 110 -83 138
-137 10 -19 14 -21 20 -10 4 8 78 205 164 438 l157 424 -36 53 c-42 60 -84 95
-153 127 -44 20 -58 22 -212 18 -386 -10 -440 -8 -497 18 -49 22 -127 94 -163
149 -14 22 -18 14 -92 -185z m859 -97 c2 -2 -9 -36 -25 -77 l-28 -74 -94 3
-95 4 -31 -84 -31 -83 -44 -7 c-24 -4 -70 -10 -101 -13 l-57 -6 -29 -82 -30
-82 -96 0 -96 0 -17 -45 c-9 -25 -22 -60 -29 -77 l-13 -33 -43 16 c-68 24
-121 62 -113 82 4 9 16 43 27 75 11 31 24 57 30 57 5 0 23 -9 38 -20 37 -26
112 -53 120 -43 7 8 60 149 60 159 0 2 -6 4 -12 4 -16 0 -107 44 -131 63 -17
14 -16 18 9 88 15 41 30 78 34 82 4 4 29 -6 56 -22 27 -17 63 -33 79 -37 29
-5 30 -4 58 70 l28 75 94 -2 c52 -1 95 -4 95 -7 0 -2 -12 -35 -26 -73 -14 -37
-24 -70 -22 -72 5 -5 175 12 186 19 5 3 19 34 32 68 30 86 38 91 135 84 43 -4
81 -8 82 -10z m41 -189 c68 -33 69 -38 38 -124 -14 -43 -28 -78 -30 -80 -1 -2
-33 13 -71 32 -37 20 -75 35 -83 33 -8 -2 -24 -30 -37 -63 -37 -100 -38 -105
-21 -105 20 0 93 -34 124 -58 l23 -18 -28 -77 -29 -77 -38 26 c-20 14 -57 32
-81 41 l-44 15 24 65 c37 97 39 94 -66 91 l-92 -3 -26 -72 c-14 -39 -28 -73
-31 -76 -3 -3 -49 -8 -102 -12 l-97 -7 28 74 c32 83 34 84 153 94 l77 6 29 81
30 82 96 0 96 0 21 55 c41 115 40 112 68 105 14 -4 45 -16 69 -28z"/>
<path d="M1225 1174 c-34 -92 -31 -95 79 -92 l78 3 23 60 c43 117 50 105 -58
105 l-94 0 -28 -76z"/>
</g>
</svg>
