<?xml version="1.0" standalone="no"?>
<!DOCTYPE svg PUBLIC "-//W3C//DTD SVG 20010904//EN"
 "http://www.w3.org/TR/2001/REC-SVG-20010904/DTD/svg10.dtd">
<svg version="1.0" xmlns="http://www.w3.org/2000/svg"
 width="1024.000000pt" height="1024.000000pt" viewBox="0 0 1024.000000 1024.000000"
 preserveAspectRatio="xMidYMid meet">

<g transform="translate(0.000000,1024.000000) scale(0.100000,-0.100000)"
fill="#000000" stroke="none">
<path d="M1290 5105 l0 -3835 2875 0 2875 0 0 80 0 80 -2795 0 -2795 0 0 3675
0 3675 825 0 825 0 0 -280 0 -280 -545 0 -545 0 0 -1255 0 -1255 80 0 80 0 0
1175 0 1175 465 0 465 0 0 -320 0 -320 -145 0 -145 0 0 -80 0 -80 910 0 910 0
0 -320 0 -320 -510 0 -510 0 0 -400 0 -401 78 3 77 3 3 318 2 317 430 0 430 0
0 -240 0 -240 -190 0 -190 0 0 -80 0 -80 795 0 795 0 0 -715 0 -715 -795 0
-795 0 0 -80 0 -80 875 0 875 0 0 875 0 875 -602 2 -603 3 -3 638 -2 637 1245
0 1245 0 0 -2155 0 -2155 -2155 0 -2155 0 0 390 0 390 -80 0 -80 0 0 -470 0
-470 2315 0 2315 0 0 2315 0 2315 -2090 0 -2090 0 0 760 0 760 -985 0 -985 0
0 -3835z"/>
<path d="M3930 8500 l0 -440 2075 0 2075 0 0 -2955 0 -2955 -2955 0 -2955 0 0
1160 0 1160 720 0 720 0 0 -440 0 -440 1515 0 1515 0 0 1515 0 1515 -550 0
-550 0 0 -80 0 -80 470 0 470 0 0 -1355 0 -1355 -1355 0 -1355 0 0 605 0 605
320 0 320 0 0 80 0 80 -400 0 -400 0 -2 -242 -3 -243 -317 -3 -318 -2 0 955 0
955 -80 0 -80 0 0 -955 0 -955 -320 0 -320 0 0 190 0 190 -80 0 -80 0 0 -1510
0 -1510 3115 0 3115 0 0 3115 0 3115 -2075 0 -2075 0 0 280 0 280 2355 0 2355
0 0 -3675 0 -3675 -525 0 -525 0 0 -80 0 -80 605 0 605 0 0 3835 0 3835 -2515
0 -2515 0 0 -440z"/>
</g>
</svg>
