<?xml version="1.0" standalone="no"?>
<!DOCTYPE svg PUBLIC "-//W3C//DTD SVG 20010904//EN"
 "http://www.w3.org/TR/2001/REC-SVG-20010904/DTD/svg10.dtd">
<svg version="1.0" xmlns="http://www.w3.org/2000/svg"
 width="920.000000pt" height="512.000000pt" viewBox="0 0 920.000000 512.000000"
 preserveAspectRatio="xMidYMid meet">

<g transform="translate(0.000000,512.000000) scale(0.100000,-0.100000)"
fill="#000000" stroke="none">
<path d="M5314 4969 c-51 -14 -65 -39 -75 -131 -11 -113 -29 -579 -29 -764 l0
-151 -137 -16 c-247 -30 -522 -46 -1288 -76 -119 -5 -202 -4 -206 1 -3 5 -9
58 -12 116 -11 202 -62 371 -137 452 -35 38 -43 42 -74 37 l-35 -6 -16 57
c-33 116 -137 224 -249 257 -160 48 -325 -28 -427 -195 -22 -36 -51 -80 -64
-98 -13 -19 -34 -59 -46 -90 -28 -76 -24 -206 10 -270 71 -137 226 -216 376
-192 125 20 280 130 345 243 l28 48 6 -43 c8 -56 26 -264 26 -304 l0 -31 -157
-7 c-312 -13 -540 -54 -683 -122 -93 -44 -110 -59 -110 -98 0 -39 7 -49 48
-70 29 -15 36 -16 50 -3 10 8 25 17 35 20 62 22 301 43 615 53 l212 7 0 -324
c0 -178 -7 -513 -15 -743 -14 -437 -14 -435 -58 -436 -34 0 -615 -120 -777
-160 -90 -22 -172 -48 -182 -57 -24 -22 -23 -75 2 -98 19 -17 30 -16 277 9
142 14 346 32 453 41 107 8 211 17 231 20 l36 5 6 -368 c7 -422 24 -640 78
-952 31 -181 65 -319 84 -340 24 -26 78 -35 116 -20 65 27 81 82 60 196 -55
291 -84 644 -97 1206 -6 242 -5 288 7 292 27 8 1710 89 1715 83 1 -1 15 -333
33 -737 18 -404 34 -750 37 -769 12 -74 98 -108 148 -58 21 21 24 36 30 138 9
171 26 963 26 1216 l0 221 93 6 c50 4 191 11 312 16 295 14 872 49 912 55 79
13 111 123 55 186 -25 28 -35 32 -112 39 -155 16 -591 31 -927 33 l-333 2 0
250 c0 138 -5 454 -11 703 -6 249 -10 455 -7 457 2 2 98 7 213 11 254 8 471
-6 680 -45 83 -15 158 -25 167 -23 37 9 68 53 68 95 0 34 -6 46 -40 77 -86 79
-236 134 -438 161 -101 13 -432 7 -576 -11 -44 -5 -82 -7 -85 -5 -2 3 -8 80
-12 172 -33 686 -44 796 -81 819 -23 14 -66 20 -94 13z m-2265 -446 c96 -70
89 -229 -16 -337 -93 -95 -237 -114 -314 -40 -34 32 -43 69 -34 132 5 38 12
51 34 63 16 9 55 52 89 96 33 44 75 87 94 97 41 21 110 16 147 -11z m2164
-1235 c4 -216 12 -527 18 -691 6 -164 9 -300 7 -303 -3 -2 -95 -9 -204 -14
-452 -22 -906 -63 -1291 -115 -102 -14 -190 -25 -196 -25 -22 0 9 1429 32
1451 3 4 170 10 371 13 423 8 647 19 960 51 124 13 241 23 261 24 l36 1 6
-392z"/>
<path d="M4714 3308 c-43 -30 -125 -116 -196 -208 l-27 -34 -48 42 c-88 77
-157 129 -209 156 -44 23 -55 25 -83 15 -29 -10 -61 -52 -61 -80 0 -7 61 -74
135 -149 l136 -136 -61 -74 c-70 -86 -130 -196 -130 -237 0 -16 7 -38 15 -50
19 -27 78 -45 109 -33 20 7 94 84 193 199 l30 34 84 -88 c100 -104 164 -145
230 -145 31 0 55 7 72 20 60 48 37 124 -62 203 -36 28 -94 78 -128 109 l-62
57 114 119 c62 66 120 133 129 150 26 51 21 89 -18 128 -46 46 -95 47 -162 2z"/>
<path d="M6545 1684 c-54 -28 -56 -30 -219 -266 l-67 -97 -103 69 c-131 88
-288 170 -325 170 -58 0 -92 -86 -55 -138 8 -12 57 -50 107 -84 74 -49 151
-105 255 -184 2 -1 -26 -51 -63 -109 -98 -156 -140 -239 -174 -341 -41 -121
-41 -176 -1 -215 24 -25 37 -30 67 -27 l38 3 85 165 c80 155 202 364 219 375
5 2 41 -25 82 -60 84 -74 176 -125 225 -125 48 0 86 36 86 81 0 74 -67 158
-200 248 -44 29 -60 46 -54 54 5 7 42 59 83 117 40 58 78 107 84 109 5 2 31
25 57 52 56 58 70 105 44 154 -33 60 -108 82 -171 49z"/>
<path d="M4518 1556 c-26 -7 -62 -25 -82 -39 -19 -15 -47 -32 -62 -37 -83 -32
-168 -127 -210 -235 -29 -76 -27 -249 4 -327 25 -62 101 -154 155 -187 95 -58
233 -75 356 -45 94 23 153 56 216 119 94 95 131 197 122 340 -4 68 -11 96 -41
158 -58 121 -183 220 -317 252 -75 17 -80 17 -141 1z m172 -261 c50 -26 100
-121 100 -192 0 -110 -104 -203 -228 -205 -60 -1 -121 22 -154 59 -54 60 -73
177 -40 250 22 49 61 105 70 99 4 -2 43 -1 87 4 87 8 127 5 165 -15z"/>
<path d="M2604 1351 c-17 -11 -38 -33 -45 -51 -12 -25 -18 -30 -38 -25 -15 4
-43 -3 -76 -20 -232 -113 -278 -533 -80 -730 129 -130 350 -145 509 -36 75 52
140 151 165 256 13 52 16 194 5 242 -42 189 -164 325 -329 369 -65 18 -74 17
-111 -5z m-28 -175 c8 -8 38 -21 67 -30 141 -41 227 -208 183 -358 -40 -140
-219 -207 -312 -117 -35 34 -67 104 -79 175 -13 79 22 196 88 302 30 47 32 48
53 28z"/>
</g>
</svg>
