<?xml version="1.0" encoding="utf-8"?>
<!-- Generator: Adobe Illustrator 24.3.0, SVG Export Plug-In . SVG Version: 6.00 Build 0)  -->
<svg version="1.1" xmlns="http://www.w3.org/2000/svg" xmlns:xlink="http://www.w3.org/1999/xlink" x="0px" y="0px"
	 viewBox="0 0 500 500" style="enable-background:new 0 0 500 500;" xml:space="preserve">
<style type="text/css">
	.st0{fill:#8097A6;}
	.st1{display:none;}
	.st2{display:inline;}
	.st3{fill:#FFFFFF;}
	.st4{display:inline;fill:none;stroke:#8097A6;stroke-width:10;stroke-miterlimit:10;}
	.st5{display:inline;fill:#FFFFFF;}
</style>
<g id="Ebene_1">
	<g>
		<path class="st0" d="M250,14c31.87,0,62.77,6.24,91.86,18.54c28.1,11.89,53.34,28.9,75.02,50.58
			c21.68,21.68,38.7,46.92,50.58,75.02C479.76,187.23,486,218.13,486,250s-6.24,62.77-18.54,91.86
			c-11.89,28.1-28.9,53.34-50.58,75.02c-21.68,21.68-46.92,38.7-75.02,50.58C312.77,479.76,281.87,486,250,486
			s-62.77-6.24-91.86-18.54c-28.1-11.89-53.34-28.9-75.02-50.58c-21.68-21.68-38.7-46.92-50.58-75.02C20.24,312.77,14,281.87,14,250
			s6.24-62.77,18.54-91.86c11.89-28.1,28.9-53.34,50.58-75.02c21.68-21.68,46.92-38.7,75.02-50.58C187.23,20.24,218.13,14,250,14
			 M250,0C111.93,0,0,111.93,0,250s111.93,250,250,250s250-111.93,250-250S388.07,0,250,0L250,0z"/>
	</g>
</g>
<g id="Ebene_2" class="st1">
	<g class="st2">
		<g>
			<g>
				<path class="st3" d="M76,347.28c0-63.83,0-127.66,0-191.49c116,110.92,232-136.5,348-25.58c0,79.5,0,159.01,0,238.51
					C308,242.13,192,473.87,76,347.28z"/>
				<path class="st0" d="M423,130.37c0,78.72,0,157.44,0,236.16C307.67,242.78,192.33,471.22,77,347.47c0-63.28,0-126.56,0-189.84
					C192.33,265.94,307.67,22.06,423,130.37 M425,130.07C308.33,16.5,191.67,267.5,75,153.93c0,64.38,0,128.75,0,193.13
					c116.67,129.48,233.33-105.61,350,23.87C425,290.64,425,210.36,425,130.07L425,130.07z"/>
			</g>
			<g>
				<path class="st0" d="M102,198.53c-9-4.91-18-11.65-27-20.57c0-8.01,0-16.02,0-24.03c9,8.76,18,15.35,27,20.11
					C102,182.21,102,190.37,102,198.53z"/>
			</g>
			<g>
				<path class="st0" d="M156,208.65c-9,1.09-18,1.02-27-0.56c0-8.32,0-16.63,0-24.95c9,1.42,18,1.34,27,0.1
					C156,191.71,156,200.18,156,208.65z"/>
			</g>
			<g>
				<path class="st0" d="M210,190.79c-9,4.41-18,8.33-27,11.42c0-8.62,0-17.24,0-25.86c9-3.24,18-7.31,27-11.88
					C210,173.25,210,182.02,210,190.79z"/>
			</g>
			<g>
				<path class="st0" d="M263,161.6c-9,5.07-18,10.3-27,15.36c0-8.92,0-17.84,0-26.76c9-5.21,18-10.6,27-15.82
					C263,143.45,263,152.53,263,161.6z"/>
			</g>
			<g>
				<path class="st0" d="M317,135.79c-9,3.09-18,7-27,11.42c0-9.23,0-18.45,0-27.68c9-4.57,18-8.64,27-11.88
					C317,117.03,317,126.41,317,135.79z"/>
			</g>
			<g>
				<path class="st0" d="M371,129.91c-9-1.57-18-1.65-27-0.56c0-9.53,0-19.06,0-28.6c9-1.24,18-1.32,27,0.1
					C371,110.54,371,120.23,371,129.91z"/>
			</g>
			<g>
				<path class="st0" d="M425,160.04c-9-8.91-18-15.66-27-20.57c0-9.84,0-19.67,0-29.51c9,4.76,18,11.35,27,20.11
					C425,140.05,425,150.05,425,160.04z"/>
			</g>
			<g>
				<path class="st0" d="M129,233.04c-9-1.73-18-4.95-27-10.02c0-8.16,0-16.33,0-24.49c9,4.91,18,7.98,27,9.56
					C129,216.4,129,224.72,129,233.04z"/>
			</g>
			<g>
				<path class="st0" d="M183,228.07c-9,2.93-18,5.04-27,5.98c0-8.47,0-16.94,0-25.4c9-1.09,18-3.35,27-6.43
					C183,210.83,183,219.45,183,228.07z"/>
			</g>
			<g>
				<path class="st0" d="M236,203.72c-9,4.91-18,9.64-27,13.86c0-8.77,0-17.54,0-26.3c9-4.38,18-9.26,27-14.32
					C236,185.88,236,194.8,236,203.72z"/>
			</g>
			<g>
				<path class="st0" d="M290,174.89c-9,4.26-18,9.02-27,13.94c0-9.07,0-18.15,0-27.22c9-5.07,18-9.98,27-14.39
					C290,156.43,290,165.66,290,174.89z"/>
			</g>
			<g>
				<path class="st0" d="M344,157.95c-9,0.94-18,3.04-27,5.98c0-9.38,0-18.76,0-28.14c9-3.09,18-5.34,27-6.43
					C344,138.89,344,148.42,344,157.95z"/>
			</g>
			<g>
				<path class="st0" d="M398,168.98c-9-5.06-18-8.29-27-10.02c0-9.68,0-19.37,0-29.05c9,1.57,18,4.65,27,9.56
					C398,149.31,398,159.14,398,168.98z"/>
			</g>
			<g>
				<path class="st0" d="M102,247.51c-9-5.21-18-12.26-27-21.48c0-8.01,0-16.02,0-24.03c9,9.07,18,15.96,27,21.02
					C102,231.18,102,239.34,102,247.51z"/>
			</g>
			<g>
				<path class="st0" d="M156,259.46c-9,0.79-18,0.41-27-1.47c0-8.32,0-16.63,0-24.95c9,1.73,18,1.95,27,1.02
					C156,242.52,156,250.99,156,259.46z"/>
			</g>
			<g>
				<path class="st0" d="M210,243.44c-9,4.11-18,7.72-27,10.5c0-8.62,0-17.24,0-25.86c9-2.93,18-6.7,27-10.96
					C210,225.89,210,234.66,210,243.44z"/>
			</g>
			<g>
				<path class="st0" d="M263,216.04c-9,4.77-18,9.69-27,14.44c0-8.92,0-17.84,0-26.76c9-4.91,18-9.98,27-14.9
					C263,197.9,263,206.97,263,216.04z"/>
			</g>
			<g>
				<path class="st0" d="M317,192.06c-9,2.78-18,6.39-27,10.5c0-9.23,0-18.45,0-27.68c9-4.26,18-8.03,27-10.96
					C317,173.3,317,182.68,317,192.06z"/>
			</g>
			<g>
				<path class="st0" d="M371,188.02c-9-1.88-18-2.26-27-1.47c0-9.53,0-19.06,0-28.6c9-0.94,18-0.71,27,1.02
					C371,168.65,371,178.33,371,188.02z"/>
			</g>
			<g>
				<path class="st0" d="M425,219.98c-9-9.22-18-16.27-27-21.48c0-9.84,0-19.67,0-29.51c9,5.06,18,11.96,27,21.02
					C425,199.99,425,209.99,425,219.98z"/>
			</g>
			<g>
				<path class="st0" d="M129,282.93c-9-2.03-18-5.56-27-10.93c0-8.16,0-16.33,0-24.49c9,5.21,18,8.59,27,10.47
					C129,266.3,129,274.61,129,282.93z"/>
			</g>
			<g>
				<path class="st0" d="M183,279.8c-9,2.63-18,4.43-27,5.06c0-8.47,0-16.94,0-25.4c9-0.79,18-2.74,27-5.52
					C183,262.56,183,271.18,183,279.8z"/>
			</g>
			<g>
				<path class="st0" d="M236,257.25c-9,4.6-18,9.03-27,12.94c0-8.77,0-17.54,0-26.3c9-4.07,18-8.65,27-13.4
					C236,239.41,236,248.33,236,257.25z"/>
			</g>
			<g>
				<path class="st0" d="M290,230.24c-9,3.96-18,8.41-27,13.02c0-9.07,0-18.15,0-27.22c9-4.77,18-9.37,27-13.48
					C290,211.79,290,221.02,290,230.24z"/>
			</g>
			<g>
				<path class="st0" d="M344,215.14c-9,0.63-18,2.43-27,5.06c0-9.38,0-18.76,0-28.14c9-2.78,18-4.73,27-5.52
					C344,196.08,344,205.61,344,215.14z"/>
			</g>
			<g>
				<path class="st0" d="M398,228c-9-5.37-18-8.9-27-10.93c0-9.68,0-19.37,0-29.05c9,1.88,18,5.26,27,10.47
					C398,208.33,398,218.17,398,228z"/>
			</g>
			<g>
				<path class="st0" d="M102,296.48c-9-5.52-18-12.87-27-22.4c0-8.01,0-16.02,0-24.03c9,9.37,18,16.57,27,21.94
					C102,280.16,102,288.32,102,296.48z"/>
			</g>
			<g>
				<path class="st0" d="M156,310.26c-9,0.48-18-0.2-27-2.39c0-8.32,0-16.63,0-24.95c9,2.03,18,2.56,27,1.93
					C156,293.33,156,301.8,156,310.26z"/>
			</g>
			<g>
				<path class="st0" d="M210,296.08c-9,3.8-18,7.11-27,9.59c0-8.62,0-17.24,0-25.86c9-2.63,18-6.09,27-10.04
					C210,278.53,210,287.3,210,296.08z"/>
			</g>
			<g>
				<path class="st0" d="M263,270.48c-9,4.46-18,9.08-27,13.53c0-8.92,0-17.84,0-26.76c9-4.6,18-9.37,27-13.99
					C263,252.34,263,261.41,263,270.48z"/>
			</g>
			<g>
				<path class="st0" d="M317,248.34c-9,2.48-18,5.78-27,9.59c0-9.23,0-18.45,0-27.68c9-3.96,18-7.41,27-10.04
					C317,229.58,317,238.96,317,248.34z"/>
			</g>
			<g>
				<path class="st0" d="M371,246.13c-9-2.19-18-2.87-27-2.39c0-9.53,0-19.06,0-28.6c9-0.63,18-0.1,27,1.93
					C371,226.76,371,236.44,371,246.13z"/>
			</g>
			<g>
				<path class="st0" d="M425,279.92c-9-9.52-18-16.88-27-22.4c0-9.84,0-19.67,0-29.51c9,5.37,18,12.57,27,21.94
					C425,259.93,425,269.92,425,279.92z"/>
			</g>
			<g>
				<path class="st0" d="M129,332.82c-9-2.34-18-6.18-27-11.85c0-8.16,0-16.33,0-24.49c9,5.52,18,9.21,27,11.39
					C129,316.19,129,324.51,129,332.82z"/>
			</g>
			<g>
				<path class="st0" d="M183,331.53c-9,2.32-18,3.82-27,4.14c0-8.47,0-16.94,0-25.4c9-0.48,18-2.13,27-4.6
					C183,314.28,183,322.9,183,331.53z"/>
			</g>
			<g>
				<path class="st0" d="M236,310.77c-9,4.29-18,8.42-27,12.03c0-8.77,0-17.54,0-26.3c9-3.77,18-8.04,27-12.49
					C236,292.93,236,301.85,236,310.77z"/>
			</g>
			<g>
				<path class="st0" d="M290,285.6c-9,3.65-18,7.8-27,12.1c0-9.07,0-18.15,0-27.22c9-4.46,18-8.76,27-12.56
					C290,267.15,290,276.38,290,285.6z"/>
			</g>
			<g>
				<path class="st0" d="M344,272.33c-9,0.33-18,1.82-27,4.14c0-9.38,0-18.76,0-28.14c9-2.48,18-4.12,27-4.6
					C344,253.27,344,262.8,344,272.33z"/>
			</g>
			<g>
				<path class="st0" d="M398,287.03c-9-5.67-18-9.51-27-11.85c0-9.68,0-19.37,0-29.05c9,2.19,18,5.87,27,11.39
					C398,267.35,398,277.19,398,287.03z"/>
			</g>
			<g>
				<path class="st0" d="M102,345.46c-9-5.83-18-13.49-27-23.32c0-8.01,0-16.02,0-24.03c9,9.68,18,17.18,27,22.86
					C102,329.14,102,337.3,102,345.46z"/>
			</g>
			<g>
				<path class="st0" d="M156,361.07c-9,0.17-18-0.82-27-3.31c0-8.32,0-16.63,0-24.95c9,2.34,18,3.18,27,2.85
					C156,344.14,156,352.61,156,361.07z"/>
			</g>
			<g>
				<path class="st0" d="M210,348.72c-9,3.5-18,6.5-27,8.67c0-8.62,0-17.24,0-25.86c9-2.32,18-5.48,27-9.13
					C210,331.17,210,339.95,210,348.72z"/>
			</g>
			<g>
				<path class="st0" d="M263,324.92c-9,4.15-18,8.47-27,12.61c0-8.92,0-17.84,0-26.76c9-4.29,18-8.76,27-13.07
					C263,306.78,263,315.85,263,324.92z"/>
			</g>
			<g>
				<path class="st0" d="M317,304.61c-9,2.17-18,5.17-27,8.67c0-9.23,0-18.45,0-27.68c9-3.65,18-6.8,27-9.13
					C317,285.85,317,295.23,317,304.61z"/>
			</g>
			<g>
				<path class="st0" d="M371,304.23c-9-2.49-18-3.48-27-3.31c0-9.53,0-19.06,0-28.6c9-0.33,18,0.51,27,2.85
					C371,284.86,371,294.55,371,304.23z"/>
			</g>
			<g>
				<path class="st0" d="M425,339.86c-9-9.83-18-17.49-27-23.32c0-9.84,0-19.67,0-29.51c9,5.67,18,13.18,27,22.86
					C425,319.88,425,329.86,425,339.86z"/>
			</g>
			<g>
				<path class="st0" d="M129,382.71c-9-2.64-18-6.79-27-12.77c0-8.16,0-16.33,0-24.49c9,5.83,18,9.82,27,12.31
					C129,366.08,129,374.4,129,382.71z"/>
			</g>
			<g>
				<path class="st0" d="M183,383.25c-9,2.02-18,3.21-27,3.23c0-8.47,0-16.94,0-25.4c9-0.17,18-1.51,27-3.69
					C183,366.01,183,374.63,183,383.25z"/>
			</g>
			<g>
				<path class="st0" d="M236,364.3c-9,3.99-18,7.8-27,11.11c0-8.77,0-17.54,0-26.3c9-3.46,18-7.43,27-11.57
					C236,346.46,236,355.38,236,364.3z"/>
			</g>
			<g>
				<path class="st0" d="M290,340.96c-9,3.34-18,7.18-27,11.19c0-9.07,0-18.15,0-27.22c9-4.15,18-8.15,27-11.64
					C290,322.51,290,331.73,290,340.96z"/>
			</g>
			<g>
				<path class="st0" d="M344,329.52c-9,0.02-18,1.21-27,3.23c0-9.38,0-18.76,0-28.14c9-2.17,18-3.51,27-3.69
					C344,310.46,344,319.99,344,329.52z"/>
			</g>
			<g>
				<path class="st0" d="M398,346.05c-9-5.98-18-10.12-27-12.77c0-9.68,0-19.37,0-29.05c9,2.49,18,6.48,27,12.31
					C398,326.38,398,336.21,398,346.05z"/>
			</g>
		</g>
	</g>
</g>
<g id="Ebene_3" class="st1">
	<g class="st2">
		<rect x="81" y="240" class="st0" width="339" height="21"/>
	</g>
	<circle class="st4" cx="339.5" cy="161.5" r="50"/>
	
		<rect x="331.69" y="272.73" transform="matrix(0.7071 0.7071 -0.7071 0.7071 336.9167 -141.389)" class="st5" width="14.89" height="126.53"/>
	
		<rect x="331.69" y="272.73" transform="matrix(-0.7071 0.7071 -0.7071 -0.7071 816.5189 333.7868)" class="st5" width="14.89" height="126.53"/>
	<g class="st2">
		<rect x="240" y="80" class="st0" width="21" height="339"/>
	</g>
	<circle class="st4" cx="163" cy="340" r="50"/>
	
		<rect x="156.96" y="97.54" transform="matrix(0.7071 0.7071 -0.7071 0.7071 161.8617 -69.1516)" class="st5" width="14.89" height="126.53"/>
	
		<rect x="156.96" y="97.54" transform="matrix(-0.7071 0.7071 -0.7071 -0.7071 394.3644 158.2659)" class="st5" width="14.89" height="126.53"/>
</g>
<g id="Ebene_4">
	<g>
		<g>
			<path class="st0" d="M110.44,122.07c0-6.4,5.23-11.63,11.63-11.63h255.19c6.4,0,11.63,5.23,11.63,11.63v48.06L407,180.59v-75.96
				c0-6.4-5.23-11.63-11.63-11.63H104.63C98.23,93,93,98.23,93,104.63V239h17.44V122.07z"/>
		</g>
		<g>
			<path class="st0" d="M388.89,237.87v139.39c0,6.4-5.23,11.63-11.63,11.63H122.07c-6.4,0-11.63-5.23-11.63-11.63V288H93v107.37
				c0,6.4,5.23,11.63,11.63,11.63h290.74c6.4,0,11.63-5.23,11.63-11.63V227.41L388.89,237.87z"/>
		</g>
	</g>
	<rect x="107" y="182" class="st0" width="104" height="18"/>
	<rect x="186" y="204" transform="matrix(-1.836970e-16 1 -1 -1.836970e-16 424 2)" class="st0" width="50" height="18"/>
	<rect x="145" y="233" class="st0" width="75" height="18"/>
	<rect x="175" y="191" transform="matrix(-1.836970e-16 1 -1 -1.836970e-16 469 -69)" class="st0" width="188" height="18"/>
	<rect x="260" y="276" class="st0" width="71" height="18"/>
	<rect x="182.5" y="170.5" transform="matrix(-1.836970e-16 1 -1 -1.836970e-16 390.5 -31.5)" class="st0" width="57" height="18"/>
	<rect x="133.5" y="117.5" transform="matrix(-1.836970e-16 1 -1 -1.836970e-16 280.5 -27.5)" class="st0" width="41" height="18"/>
	<rect x="186" y="367" transform="matrix(-1.836970e-16 1 -1 -1.836970e-16 587 165)" class="st0" width="50" height="18"/>
	<rect x="125" y="258" transform="matrix(-1.836970e-16 1 -1 -1.836970e-16 421 113)" class="st0" width="58" height="18"/>
	<rect x="145" y="338" class="st0" width="75" height="18"/>
	<rect x="183" y="310" transform="matrix(-1.836970e-16 1 -1 -1.836970e-16 530 108)" class="st0" width="56" height="18"/>
	<rect x="316" y="142" class="st0" width="76" height="18"/>
	
		<rect x="284.5" y="177.5" transform="matrix(-1.836970e-16 1 -1 -1.836970e-16 511.5 -138.5)" class="st0" width="81" height="18"/>
	<rect x="260" y="329" class="st0" width="71" height="18"/>
	<rect x="294.5" y="356.5" transform="matrix(-1.836970e-16 1 -1 -1.836970e-16 687.5 43.5)" class="st0" width="55" height="18"/>
	<rect x="59" y="256" class="st3" width="68" height="12"/>
	<rect x="92.5" y="284.5" transform="matrix(-1.836970e-16 1 -1 -1.836970e-16 417.5 163.5)" class="st3" width="69" height="12"/>
	<rect x="121" y="314" class="st3" width="65" height="12"/>
	<rect x="153.5" y="290.5" transform="matrix(-1.836970e-16 1 -1 -1.836970e-16 479.5 113.5)" class="st3" width="59" height="12"/>
	<rect x="177" y="265" class="st3" width="68" height="12"/>
	<rect x="215.5" y="283.5" transform="matrix(-1.836970e-16 1 -1 -1.836970e-16 529.5 49.5)" class="st3" width="49" height="12"/>
	<rect x="234" y="306" class="st3" width="130" height="12"/>
	
		<rect x="304.5" y="256.5" transform="matrix(-1.836970e-16 1 -1 -1.836970e-16 622.5 -97.5)" class="st3" width="111" height="12"/>
	<rect x="354" y="199" class="st3" width="43" height="12"/>
	<polygon class="st3" points="425,204.86 383.68,181 383.68,228.71 	"/>
</g>
</svg>
