<?xml version="1.0" encoding="utf-8"?>
<!-- Generator: Adobe Illustrator 24.3.0, SVG Export Plug-In . SVG Version: 6.00 Build 0)  -->
<svg version="1.1" xmlns="http://www.w3.org/2000/svg" xmlns:xlink="http://www.w3.org/1999/xlink" x="0px" y="0px"
	 viewBox="0 0 500 500" style="enable-background:new 0 0 500 500;" xml:space="preserve">
<style type="text/css">
	.st0{fill:#8097A6;}
	.st1{fill:#FFFFFF;}
	.st2{display:none;}
</style>
<g id="Ebene_1">
	<g>
		<path class="st0" d="M250,14c31.87,0,62.77,6.24,91.86,18.54c28.1,11.89,53.34,28.9,75.02,50.58
			c21.68,21.68,38.7,46.92,50.58,75.02C479.76,187.23,486,218.13,486,250s-6.24,62.77-18.54,91.86
			c-11.89,28.1-28.9,53.34-50.58,75.02c-21.68,21.68-46.92,38.7-75.02,50.58C312.77,479.76,281.87,486,250,486
			s-62.77-6.24-91.86-18.54c-28.1-11.89-53.34-28.9-75.02-50.58c-21.68-21.68-38.7-46.92-50.58-75.02C20.24,312.77,14,281.87,14,250
			s6.24-62.77,18.54-91.86c11.89-28.1,28.9-53.34,50.58-75.02c21.68-21.68,46.92-38.7,75.02-50.58C187.23,20.24,218.13,14,250,14
			 M250,0C111.93,0,0,111.93,0,250s111.93,250,250,250s250-111.93,250-250S388.07,0,250,0L250,0z"/>
	</g>
</g>
<g id="Ebene_2">
	<g>
		<g>
			<g>
				<path class="st1" d="M67,325.23c0-44.59,0-89.18,0-133.77c116,70.48,232-153.41,348-82.93c0,98.74,0,197.49,0,296.23
					C299,280.14,183,449.86,67,325.23z"/>
				<path class="st0" d="M414,109.31c0,97.67,0,195.34,0,293.02c-115.33-121.99-230.67,45.34-346-76.65c0-44.33,0-88.66,0-132.99
					C183.33,261.33,298.67,40.67,414,109.31 M416,107.77C299.33,35.44,182.67,262.56,66,190.23c0,44.85,0,89.69,0,134.54
					c116.67,127.31,233.33-44.85,350,82.46C416,307.41,416,207.59,416,107.77L416,107.77z"/>
			</g>
			<g>
				<path class="st0" d="M93,220.9c-9-2.84-18-7.18-27-13.31c0-5.58,0-11.16,0-16.74c9,5.6,18,9.42,27,11.73
					C93,208.68,93,214.79,93,220.9z"/>
			</g>
			<g>
				<path class="st0" d="M147,222.04c-9,2.09-18,3.22-27,3.13c0-6.64,0-13.27,0-19.91c9-0.43,18-2.09,27-4.71
					C147,207.72,147,214.88,147,222.04z"/>
			</g>
			<g>
				<path class="st0" d="M201,200.21c-9,4.82-18,9.23-27,12.96c0-7.69,0-15.38,0-23.07c9-4.26,18-9.2,27-14.55
					C201,183.77,201,191.99,201,200.21z"/>
			</g>
			<g>
				<path class="st0" d="M254,169.2c-9,5.36-18,10.85-27,16.2c0-8.73,0-17.45,0-26.18c9-5.88,18-11.9,27-17.78
					C254,150.69,254,159.94,254,169.2z"/>
			</g>
			<g>
				<path class="st0" d="M308,140.83c-9,3.73-18,8.14-27,12.96c0-9.78,0-19.56,0-29.35c9-5.35,18-10.29,27-14.55
					C308,120.21,308,130.52,308,140.83z"/>
			</g>
			<g>
				<path class="st0" d="M362,128.83c-9-0.1-18,1.03-27,3.13c0-10.84,0-21.67,0-32.51c9-2.62,18-4.28,27-4.71
					C362,106.1,362,117.47,362,128.83z"/>
			</g>
			<g>
				<path class="st0" d="M416,146.41c-9-6.13-18-10.47-27-13.31c0-11.89,0-23.78,0-35.68c9,2.31,18,6.13,27,11.73
					C416,121.57,416,133.99,416,146.41z"/>
			</g>
			<g>
				<path class="st0" d="M120,245.07c-9-0.63-18-2.48-27-5.85c0-6.11,0-12.22,0-18.32c9,2.84,18,4.17,27,4.27
					C120,231.8,120,238.44,120,245.07z"/>
			</g>
			<g>
				<path class="st0" d="M174,236.24c-9,3.2-18,5.72-27,7.29c0-7.16,0-14.33,0-21.49c9-2.09,18-5.14,27-8.87
					C174,220.86,174,228.55,174,236.24z"/>
			</g>
			<g>
				<path class="st0" d="M227,211.58c-9,4.82-18,9.5-27,13.76c0-8.2,0-16.4,0-24.6c9-4.79,18-10,27-15.35
					C227,194.12,227,202.85,227,211.58z"/>
			</g>
			<g>
				<path class="st0" d="M259,334.57c-9,2.14-18,4.45-27,6.68c0-8.82,0-17.65,0-26.47c9-2.75,18-5.6,27-8.26
					C259,315.86,259,325.21,259,334.57z"/>
			</g>
			<g>
				<path class="st0" d="M335,164.47c-9,1.56-18,4.08-27,7.29c0-10.31,0-20.62,0-30.93c9-3.73,18-6.78,27-8.87
					C335,142.8,335,153.63,335,164.47z"/>
			</g>
			<g>
				<path class="st0" d="M389,168.78c-9-3.37-18-5.22-27-5.85c0-11.36,0-22.73,0-34.09c9,0.1,18,1.43,27,4.27
					C389,144.99,389,156.88,389,168.78z"/>
			</g>
			<g>
				<path class="st0" d="M93,257.55c-9-3.89-18-9.29-27-16.48c0-5.58,0-11.16,0-16.74c9,6.65,18,11.53,27,14.89
					C93,245.33,93,251.44,93,257.55z"/>
			</g>
			<g>
				<path class="st0" d="M147,265.02c-9,1.04-18,1.11-27-0.04c0-6.64,0-13.27,0-19.91c9,0.63,18,0.02,27-1.54
					C147,250.69,147,257.86,147,265.02z"/>
			</g>
			<g>
				<path class="st0" d="M201,249.52c-9,3.76-18,7.12-27,9.8c0-7.69,0-15.38,0-23.07c9-3.2,18-7.09,27-11.38
					C201,233.08,201,241.3,201,249.52z"/>
			</g>
			<g>
				<path class="st0" d="M254,224.72c-9,4.3-18,8.74-27,13.04c0-8.73,0-17.45,0-26.18c9-4.82,18-9.79,27-14.62
					C254,206.21,254,215.47,254,224.72z"/>
			</g>
			<g>
				<path class="st0" d="M308,202.68c-9,2.68-18,6.03-27,9.8c0-9.78,0-19.56,0-29.35c9-4.29,18-8.18,27-11.38
					C308,182.06,308,192.37,308,202.68z"/>
			</g>
			<g>
				<path class="st0" d="M362,197.02c-9-1.15-18-1.08-27-0.04c0-10.84,0-21.67,0-32.51c9-1.56,18-2.17,27-1.54
					C362,174.29,362,185.66,362,197.02z"/>
			</g>
			<g>
				<path class="st0" d="M416,220.93c-9-7.18-18-12.58-27-16.48c0-11.89,0-23.78,0-35.68c9,3.37,18,8.24,27,14.89
					C416,196.09,416,208.51,416,220.93z"/>
			</g>
			<g>
				<path class="st0" d="M120,284.89c-9-1.68-18-4.6-27-9.02c0-6.11,0-12.22,0-18.32c9,3.89,18,6.28,27,7.43
					C120,271.61,120,278.25,120,284.89z"/>
			</g>
			<g>
				<path class="st0" d="M174,282.39c-9,2.15-18,3.61-27,4.12c0-7.16,0-14.33,0-21.49c9-1.04,18-3.03,27-5.7
					C174,267.01,174,274.7,174,282.39z"/>
			</g>
			<g>
				<path class="st0" d="M227,263.94c-9,3.77-18,7.39-27,10.6c0-8.2,0-16.4,0-24.6c9-3.73,18-7.89,27-12.18
					C227,246.48,227,255.21,227,263.94z"/>
			</g>
			<g>
				<path class="st0" d="M281,241.83c-9,3.24-18,6.88-27,10.66c0-9.25,0-18.51,0-27.76c9-4.3,18-8.48,27-12.24
					C281,222.26,281,232.04,281,241.83z"/>
			</g>
			<g>
				<path class="st0" d="M335,229.49c-9,0.51-18,1.97-27,4.12c0-10.31,0-20.62,0-30.93c9-2.68,18-4.67,27-5.7
					C335,207.82,335,218.65,335,229.49z"/>
			</g>
			<g>
				<path class="st0" d="M389,240.13c-9-4.42-18-7.33-27-9.02c0-11.36,0-22.73,0-34.09c9,1.15,18,3.54,27,7.43
					C389,216.35,389,228.24,389,240.13z"/>
			</g>
			<g>
				<path class="st0" d="M93,294.19c-9-4.95-18-11.4-27-19.64c0-5.58,0-11.16,0-16.74c9,7.71,18,13.64,27,18.06
					C93,281.98,93,288.08,93,294.19z"/>
			</g>
			<g>
				<path class="st0" d="M147,308c-9-0.02-18-1-27-3.21c0-6.64,0-13.27,0-19.91c9,1.68,18,2.13,27,1.62
					C147,293.67,147,300.83,147,308z"/>
			</g>
			<g>
				<path class="st0" d="M201,298.83c-9,2.71-18,5.01-27,6.63c0-7.69,0-15.38,0-23.07c9-2.15,18-4.98,27-8.21
					C201,282.39,201,290.61,201,298.83z"/>
			</g>
			<g>
				<path class="st0" d="M254,280.25c-9,3.25-18,6.63-27,9.87c0-8.73,0-17.45,0-26.18c9-3.77,18-7.68,27-11.45
					C254,261.74,254,270.99,254,280.25z"/>
			</g>
			<g>
				<path class="st0" d="M308,264.54c-9,1.62-18,3.92-27,6.63c0-9.78,0-19.56,0-29.35c9-3.24,18-6.07,27-8.21
					C308,243.92,308,254.23,308,264.54z"/>
			</g>
			<g>
				<path class="st0" d="M362,265.21c-9-2.21-18-3.19-27-3.21c0-10.84,0-21.67,0-32.51c9-0.51,18-0.06,27,1.62
					C362,242.48,362,253.84,362,265.21z"/>
			</g>
			<g>
				<path class="st0" d="M416,295.45c-9-8.24-18-14.69-27-19.64c0-11.89,0-23.78,0-35.68c9,4.42,18,10.35,27,18.06
					C416,270.61,416,283.03,416,295.45z"/>
			</g>
			<g>
				<path class="st0" d="M120,324.7c-9-2.74-18-6.71-27-12.18c0-6.11,0-12.22,0-18.32c9,4.95,18,8.39,27,10.6
					C120,311.43,120,318.06,120,324.7z"/>
			</g>
			<g>
				<path class="st0" d="M174,328.53c-9,1.09-18,1.5-27,0.95c0-7.16,0-14.33,0-21.49c9,0.02,18-0.92,27-2.54
					C174,313.15,174,320.84,174,328.53z"/>
			</g>
			<g>
				<path class="st0" d="M227,316.29c-9,2.71-18,5.28-27,7.43c0-8.2,0-16.4,0-24.6c9-2.68,18-5.78,27-9.01
					C227,298.84,227,307.57,227,316.29z"/>
			</g>
			<g>
				<path class="st0" d="M281,300.52c-9,2.18-18,4.77-27,7.49c0-9.25,0-18.51,0-27.76c9-3.25,18-6.37,27-9.07
					C281,280.95,281,290.73,281,300.52z"/>
			</g>
			<g>
				<path class="st0" d="M335,294.51c-9-0.55-18-0.14-27,0.95c0-10.31,0-20.62,0-30.93c9-1.62,18-2.56,27-2.54
					C335,272.84,335,283.68,335,294.51z"/>
			</g>
			<g>
				<path class="st0" d="M389,311.48c-9-5.48-18-9.45-27-12.18c0-11.36,0-22.73,0-34.09c9,2.21,18,5.65,27,10.6
					C389,287.7,389,299.59,389,311.48z"/>
			</g>
			<g>
				<path class="st0" d="M93,330.84c-9-6-18-13.51-27-22.81c0-5.58,0-11.16,0-16.74c9,8.77,18,15.75,27,21.23
					C93,318.62,93,324.73,93,330.84z"/>
			</g>
			<g>
				<path class="st0" d="M147,350.98c-9-1.08-18-3.11-27-6.37c0-6.64,0-13.27,0-19.91c9,2.74,18,4.24,27,4.79
					C147,336.65,147,343.81,147,350.98z"/>
			</g>
			<g>
				<path class="st0" d="M201,348.14c-9,1.65-18,2.9-27,3.47c0-7.69,0-15.38,0-23.07c9-1.09,18-2.87,27-5.05
					C201,331.7,201,339.92,201,348.14z"/>
			</g>
			<g>
				<path class="st0" d="M254,335.77c-9,2.19-18,4.52-27,6.7c0-8.73,0-17.45,0-26.18c9-2.71,18-5.56,27-8.29
					C254,317.26,254,326.52,254,335.77z"/>
			</g>
			<g>
				<path class="st0" d="M308,326.4c-9,0.56-18,1.81-27,3.47c0-9.78,0-19.56,0-29.35c9-2.18,18-3.96,27-5.05
					C308,305.78,308,316.09,308,326.4z"/>
			</g>
			<g>
				<path class="st0" d="M362,333.4c-9-3.26-18-5.3-27-6.37c0-10.84,0-21.67,0-32.51c9,0.55,18,2.05,27,4.79
					C362,310.67,362,322.03,362,333.4z"/>
			</g>
			<g>
				<path class="st0" d="M416,369.97c-9-9.29-18-16.8-27-22.81c0-11.89,0-23.78,0-35.68c9,5.48,18,12.46,27,21.23
					C416,345.13,416,357.55,416,369.97z"/>
			</g>
			<g>
				<path class="st0" d="M120,364.51c-9-3.79-18-8.82-27-15.35c0-6.11,0-12.22,0-18.32c9,6,18,10.5,27,13.77
					C120,351.24,120,357.87,120,364.51z"/>
			</g>
			<g>
				<path class="st0" d="M174,374.68c-9,0.04-18-0.61-27-2.21c0-7.16,0-14.33,0-21.49c9,1.08,18,1.19,27,0.63
					C174,359.29,174,366.99,174,374.68z"/>
			</g>
			<g>
				<path class="st0" d="M227,368.65c-9,1.66-18,3.17-27,4.26c0-8.2,0-16.4,0-24.6c9-1.62,18-3.66,27-5.85
					C227,351.2,227,359.93,227,368.65z"/>
			</g>
			<g>
				<path class="st0" d="M281,359.21c-9,1.13-18,2.66-27,4.33c0-9.25,0-18.51,0-27.76c9-2.19,18-4.26,27-5.91
					C281,339.64,281,349.42,281,359.21z"/>
			</g>
			<g>
				<path class="st0" d="M335,359.54c-9-1.6-18-2.25-27-2.21c0-10.31,0-20.62,0-30.93c9-0.56,18-0.45,27,0.63
					C335,337.86,335,348.7,335,359.54z"/>
			</g>
			<g>
				<path class="st0" d="M389,382.84c-9-6.53-18-11.56-27-15.35c0-11.36,0-22.73,0-34.09c9,3.26,18,7.76,27,13.77
					C389,359.05,389,370.95,389,382.84z"/>
			</g>
			<g>
				<path class="st0" d="M281,183.14c-9,4.29-18,8.99-27,13.82c0-9.25,0-18.51,0-27.76c9-5.36,18-10.59,27-15.41
					C281,163.57,281,173.35,281,183.14z"/>
			</g>
		</g>
	</g>
	<rect x="55" y="191" class="st0" width="11" height="210"/>
</g>
<g id="Ebene_3" class="st2">
</g>
</svg>
